<?xml version="1.0" encoding="utf-8"?>
<!-- Generator: Adobe Illustrator 19.0.0, SVG Export Plug-In . SVG Version: 6.00 Build 0)  -->
<svg version="1.1" id="Layer_1" xmlns="http://www.w3.org/2000/svg" xmlns:xlink="http://www.w3.org/1999/xlink" x="0px" y="0px"
	 viewBox="0 0 100 15" style="enable-background:new 0 0 100 15;" xml:space="preserve">
<style type="text/css">
	.st0{fill-rule:evenodd;clip-rule:evenodd;}
	.st1{fill:none;stroke:#000000;stroke-width:0.216;stroke-miterlimit:22.9256;}
	.st2{fill-rule:evenodd;clip-rule:evenodd;fill:#ED1C24;}
	.st3{fill-rule:evenodd;clip-rule:evenodd;fill:#00A651;}
	.st4{fill-rule:evenodd;clip-rule:evenodd;fill:#FFFFFF;}
	.st5{fill:#FFFFFF;}
</style>
<rect id="XMLID_44_" x="6.2" y="0" class="st0" width="87.6" height="15"/>
<rect id="XMLID_43_" x="6.2" y="0" class="st1" width="87.6" height="15"/>
<path id="XMLID_42_" class="st2" d="M81.6,12.5h0.3c0.4-0.4,0.3-0.3,0.4-0.9c0.2-0.8,0.8-2.8,1-3.5c0.4-1.2,0.8-0.9,1.2-1.7
	c1.1-2.1-1.2-2.1-1.5,0c-0.1,0.8,0.4,0.6,0.1,1.7c-0.2,0.7-0.9,2.6-1.3,3.4c-0.1,0.2-0.2,0.4-0.2,0.5C81.5,12.3,81.6,12.3,81.6,12.5
	"/>
<path id="XMLID_41_" class="st3" d="M77.3,12.4h0.4c0.2-0.2,0.2-0.1,0.3-0.3c0.2-0.6,0.4-2.1,1.1-3.7c0.4-0.9,1-2,1.1-2.9
	C80.2,5,80.2,5,80.1,4.7H80c-0.4,0.3-1.1,3.2-1.4,3.9c-0.3,1-0.7,1.9-1.2,2.9C77.1,12.4,77.3,12,77.3,12.4"/>
<path id="XMLID_40_" class="st4" d="M79.5,12.5h0.2l0.3-0.2c0.1-0.2,0.9-3.7,1.4-4.7c0.1-0.3,0.2-0.4,0.3-0.4
	c0.1-0.1,0.1-0.1,0.2-0.1c0.1-0.1,0.1-0.2,0.2-0.4L82.5,5l-0.1,0l-0.5,1.5l-0.2,0L82.1,5C82,5,82.1,5,82,5l-0.5,1.4l-0.2,0L81.8,5
	l-0.1,0C81.5,5.3,81,6.7,81,6.9C81,7,81.1,7,81.1,7.2c0.1,0.7-1.1,3.5-1.5,4.4C79.4,12.2,79.3,12.1,79.5,12.5"/>
<path id="XMLID_68_" class="st5" d="M73.2,6.5c-0.2,0-0.4,0.1-0.6,0.2c-0.3,0.3-0.6,0.9-1,1.9c-0.4,1-0.6,1.9-0.6,2.7
	c0,0.2,0.1,0.4,0.2,0.5c0.1,0.1,0.3,0.2,0.4,0.2c0.2,0,0.3-0.1,0.4-0.2c0.2-0.2,0.4-0.5,0.7-1c0.3-0.5,0.5-1.1,0.7-1.8
	c0.2-0.6,0.3-1.2,0.3-1.8c0-0.2-0.1-0.4-0.2-0.5C73.5,6.6,73.4,6.5,73.2,6.5 M73.5,6.2c0.3,0,0.7,0.1,0.9,0.2
	c0.3,0.2,0.5,0.4,0.7,0.6c0.2,0.3,0.2,0.6,0.2,0.9c0,0.7-0.2,1.4-0.6,2.1c-0.4,0.7-0.9,1.2-1.5,1.6c-0.6,0.4-1.3,0.6-1.9,0.6
	c-0.6,0-1-0.2-1.3-0.5c-0.3-0.3-0.5-0.8-0.5-1.3c0-0.6,0.1-1.1,0.4-1.7c0.2-0.5,0.5-1,0.9-1.4c0.4-0.4,0.8-0.7,1.3-0.9
	C72.5,6.3,73,6.2,73.5,6.2z M67.2,6.2l-1,3.6C67,8.1,67.6,7,68,6.6c0.2-0.2,0.5-0.4,0.7-0.4c0.2,0,0.3,0.1,0.4,0.2
	c0.1,0.1,0.2,0.3,0.2,0.6c0,0.4-0.1,0.8-0.3,1c-0.1,0.2-0.3,0.3-0.4,0.3c-0.2,0-0.3-0.1-0.4-0.2c-0.1-0.2-0.1-0.3-0.2-0.3
	c0,0-0.1,0-0.1,0c0,0-0.1,0-0.1,0c-0.1,0.1-0.2,0.2-0.4,0.4c-0.2,0.2-0.3,0.5-0.6,1c-0.2,0.5-0.4,0.9-0.5,1.2
	c-0.1,0.3-0.3,0.9-0.5,1.8h-1.5l1.1-4.2c0.1-0.3,0.1-0.5,0.1-0.6c0-0.1,0-0.2-0.1-0.3c0-0.1-0.1-0.1-0.2-0.1c-0.1,0-0.2,0-0.4,0
	l0.1-0.2l1.9-0.4H67.2z M61.6,6.5c-0.2,0-0.4,0.1-0.6,0.2c-0.3,0.3-0.6,0.9-1,1.9c-0.4,1-0.6,1.9-0.6,2.7c0,0.2,0.1,0.4,0.2,0.5
	c0.1,0.1,0.3,0.2,0.4,0.2c0.2,0,0.3-0.1,0.4-0.2c0.2-0.2,0.4-0.5,0.7-1c0.3-0.5,0.5-1.1,0.7-1.8c0.2-0.6,0.3-1.2,0.3-1.8
	c0-0.2-0.1-0.4-0.2-0.5C61.9,6.6,61.7,6.5,61.6,6.5z M61.9,6.2c0.3,0,0.7,0.1,0.9,0.2c0.3,0.2,0.5,0.4,0.7,0.6
	c0.2,0.3,0.2,0.6,0.2,0.9c0,0.7-0.2,1.4-0.6,2.1c-0.4,0.7-0.9,1.2-1.5,1.6c-0.6,0.4-1.3,0.6-1.9,0.6c-0.6,0-1-0.2-1.3-0.5
	c-0.3-0.3-0.5-0.8-0.5-1.3c0-0.6,0.1-1.1,0.4-1.7c0.2-0.5,0.5-1,0.9-1.4c0.4-0.4,0.8-0.7,1.3-0.9C60.9,6.3,61.3,6.2,61.9,6.2z
	 M55.3,7.3c0-0.3-0.1-0.4-0.2-0.6c-0.1-0.1-0.2-0.2-0.4-0.2c-0.1,0-0.3,0.1-0.4,0.2c-0.3,0.3-0.6,0.8-0.9,1.6
	c-0.3,0.8-0.5,1.5-0.5,2.1c0,0.2,0,0.4,0.1,0.5c0.1,0.1,0.2,0.1,0.2,0.1c0.1,0,0.3-0.1,0.4-0.2c0.4-0.3,0.7-0.9,1.1-1.7
	C55.2,8.4,55.3,7.8,55.3,7.3z M58.1,3.3l-2.1,7.2c-0.1,0.4-0.2,0.7-0.2,0.8c0,0,0,0.1,0.1,0.1c0,0,0.1,0.1,0.1,0.1
	c0.1,0,0.2,0,0.2-0.1c0.2-0.1,0.3-0.3,0.6-0.7l0.2,0.1c-0.6,1-1.3,1.6-2,1.6c-0.3,0-0.5-0.1-0.6-0.2c-0.1-0.1-0.2-0.3-0.2-0.5
	c0-0.2,0.1-0.5,0.2-0.9l0.2-0.7c-0.5,0.9-1,1.6-1.4,1.9c-0.3,0.2-0.6,0.3-0.9,0.3c-0.3,0-0.6-0.1-0.8-0.4c-0.2-0.3-0.3-0.6-0.3-1.1
	c0-0.6,0.1-1.3,0.4-1.9c0.3-0.6,0.6-1.1,1-1.5c0.4-0.4,0.7-0.7,1.1-0.9c0.3-0.2,0.7-0.3,1-0.3c0.2,0,0.3,0,0.4,0.1
	c0.1,0.1,0.3,0.2,0.4,0.4l0.5-1.6c0.1-0.4,0.2-0.7,0.2-0.8c0-0.1,0-0.2-0.1-0.3c-0.1-0.1-0.2-0.1-0.3-0.1c-0.1,0-0.1,0-0.2,0
	l0.1-0.2l2.1-0.4H58.1z M48.7,7.5c0-0.3-0.1-0.6-0.2-0.7c-0.1-0.1-0.2-0.2-0.3-0.2c-0.1,0-0.3,0.1-0.4,0.2c-0.3,0.3-0.6,0.8-0.9,1.6
	c-0.3,0.8-0.5,1.5-0.5,2.1c0,0.2,0,0.4,0.1,0.5c0.1,0.1,0.2,0.2,0.2,0.2c0.2,0,0.4-0.1,0.6-0.3c0.3-0.3,0.5-0.7,0.8-1.2
	C48.5,8.8,48.7,8.1,48.7,7.5z M50.7,6.3l-1.2,4.2l-0.1,0.5c0,0.1,0,0.1,0,0.1c0,0.1,0,0.1,0.1,0.1c0,0,0.1,0.1,0.1,0.1
	c0.1,0,0.2-0.1,0.4-0.2c0.1-0.1,0.2-0.3,0.5-0.6l0.2,0.1c-0.3,0.6-0.6,1-1,1.2c-0.3,0.3-0.7,0.4-1.1,0.4c-0.2,0-0.4-0.1-0.6-0.2
	c-0.1-0.1-0.2-0.3-0.2-0.5c0-0.2,0.1-0.5,0.2-0.9l0.2-0.5c-0.5,0.8-1,1.4-1.4,1.8c-0.3,0.2-0.5,0.3-0.8,0.3c-0.4,0-0.7-0.2-0.9-0.5
	c-0.2-0.3-0.3-0.7-0.3-1.1c0-0.6,0.2-1.3,0.5-2.1c0.4-0.8,0.8-1.4,1.4-1.9c0.5-0.4,1-0.6,1.4-0.6c0.2,0,0.4,0.1,0.6,0.2
	c0.1,0.1,0.3,0.4,0.3,0.8l0.2-0.8L50.7,6.3z M44.2,6.2l-1.3,4.5c-0.1,0.3-0.1,0.4-0.1,0.5c0,0,0,0.1,0.1,0.1c0,0,0.1,0.1,0.1,0.1
	c0.1,0,0.1,0,0.2-0.1c0.2-0.2,0.4-0.4,0.7-0.9l0.2,0.1c-0.6,1.1-1.3,1.7-2.1,1.7c-0.3,0-0.5-0.1-0.7-0.2c-0.2-0.2-0.2-0.4-0.2-0.6
	c0-0.2,0-0.4,0.1-0.6l0.9-3.1c0.1-0.3,0.1-0.5,0.1-0.7c0-0.1,0-0.2-0.1-0.3c-0.1-0.1-0.2-0.1-0.3-0.1c-0.1,0-0.1,0-0.2,0l0.1-0.3
	l2.2-0.4H44.2z M43.8,3.3c0.3,0,0.5,0.1,0.7,0.3c0.2,0.2,0.3,0.4,0.3,0.7c0,0.3-0.1,0.5-0.3,0.7c-0.2,0.2-0.4,0.3-0.7,0.3
	c-0.3,0-0.5-0.1-0.7-0.3c-0.2-0.2-0.3-0.4-0.3-0.7c0-0.3,0.1-0.5,0.3-0.7C43.3,3.4,43.5,3.3,43.8,3.3z M36,11.8
	c0.2,0.1,0.4,0.2,0.5,0.2c0.2,0,0.4,0,0.6-0.1c0.2-0.1,0.5-0.4,0.8-0.8c0.3-0.4,0.5-0.8,0.7-1.4c0.2-0.5,0.3-1.1,0.3-1.6
	c0-0.3-0.1-0.5-0.2-0.7c-0.1-0.2-0.3-0.2-0.5-0.2c-0.3,0-0.6,0.1-0.8,0.4c-0.2,0.2-0.3,0.6-0.5,1.2L36,11.8z M38.4,3.3l-1.1,3.9
	c0.3-0.4,0.6-0.6,0.8-0.7c0.2-0.1,0.5-0.2,0.7-0.2c0.5,0,0.9,0.2,1.1,0.6c0.3,0.4,0.4,0.8,0.4,1.3c0,1.1-0.4,2.2-1.3,3.1
	c-0.7,0.8-1.6,1.2-2.5,1.2c-0.7,0-1.4-0.2-2.2-0.6l2-6.8c0.1-0.3,0.1-0.5,0.1-0.7c0-0.1,0-0.2-0.1-0.2c-0.1-0.1-0.3-0.1-0.5-0.1
	l0.1-0.3L38,3.3H38.4z M29.4,11.8c0.2,0.1,0.4,0.2,0.5,0.2c0.2,0,0.4,0,0.6-0.1c0.2-0.1,0.5-0.4,0.8-0.8c0.3-0.4,0.5-0.8,0.7-1.4
	c0.2-0.5,0.3-1.1,0.3-1.6c0-0.3-0.1-0.5-0.2-0.7c-0.1-0.2-0.3-0.2-0.5-0.2c-0.3,0-0.6,0.1-0.8,0.4c-0.2,0.2-0.3,0.6-0.5,1.2
	L29.4,11.8z M31.9,3.3l-1.1,3.9c0.3-0.4,0.6-0.6,0.8-0.7c0.2-0.1,0.5-0.2,0.7-0.2c0.5,0,0.9,0.2,1.1,0.6c0.3,0.4,0.4,0.8,0.4,1.3
	c0,1.1-0.4,2.2-1.3,3.1c-0.7,0.8-1.6,1.2-2.5,1.2c-0.7,0-1.4-0.2-2.2-0.6l2-6.8C29.9,4.6,30,4.4,30,4.3c0-0.1,0-0.2-0.1-0.2
	c-0.1-0.1-0.3-0.1-0.5-0.1l0.1-0.3l2.1-0.4H31.9z M25.4,7.5c0-0.3-0.1-0.6-0.2-0.7c-0.1-0.1-0.2-0.2-0.3-0.2c-0.1,0-0.3,0.1-0.4,0.2
	c-0.3,0.3-0.6,0.8-0.9,1.6c-0.3,0.8-0.5,1.5-0.5,2.1c0,0.2,0,0.4,0.1,0.5c0.1,0.1,0.2,0.2,0.2,0.2c0.2,0,0.4-0.1,0.6-0.3
	c0.3-0.3,0.5-0.7,0.8-1.2C25.2,8.8,25.4,8.1,25.4,7.5z M27.5,6.3l-1.2,4.2l-0.1,0.5c0,0.1,0,0.1,0,0.1c0,0.1,0,0.1,0.1,0.1
	c0,0,0.1,0.1,0.1,0.1c0.1,0,0.2-0.1,0.4-0.2c0.1-0.1,0.2-0.3,0.5-0.6l0.2,0.1c-0.3,0.6-0.6,1-1,1.2c-0.3,0.3-0.7,0.4-1.1,0.4
	c-0.2,0-0.4-0.1-0.6-0.2c-0.1-0.1-0.2-0.3-0.2-0.5c0-0.2,0.1-0.5,0.2-0.9l0.2-0.5c-0.5,0.8-1,1.4-1.4,1.8c-0.3,0.2-0.5,0.3-0.8,0.3
	c-0.4,0-0.7-0.2-0.9-0.5c-0.2-0.3-0.3-0.7-0.3-1.1c0-0.6,0.2-1.3,0.5-2.1c0.4-0.8,0.8-1.4,1.4-1.9c0.5-0.4,1-0.6,1.4-0.6
	c0.2,0,0.4,0.1,0.6,0.2c0.1,0.1,0.3,0.4,0.3,0.8L26,6.4L27.5,6.3z M21.6,3.3l-0.7,2.9h-0.2c0-0.5-0.1-0.8-0.2-1.1
	c-0.2-0.4-0.4-0.7-0.7-0.9c-0.3-0.2-0.6-0.3-1-0.3c-0.3,0-0.6,0.1-0.9,0.4c-0.3,0.3-0.4,0.5-0.4,0.9c0,0.3,0.1,0.6,0.3,0.9
	c0.2,0.3,0.6,0.8,1.2,1.4c0.5,0.5,0.9,0.9,1,1.3c0.2,0.4,0.3,0.7,0.3,1.2c0,0.5-0.1,0.9-0.4,1.3c-0.2,0.4-0.6,0.7-1.1,0.9
	c-0.5,0.2-1,0.3-1.6,0.3c-0.4,0-0.8-0.1-1.4-0.2c-0.6-0.1-0.9-0.2-1.1-0.2c-0.1,0-0.3,0-0.4,0.1c-0.1,0-0.3,0.1-0.4,0.3h-0.2L14.4,9
	h0.2c0.1,0.6,0.2,1.1,0.4,1.5c0.2,0.4,0.4,0.7,0.8,1c0.3,0.2,0.7,0.3,1.1,0.3c0.4,0,0.8-0.1,1.1-0.4c0.3-0.3,0.4-0.6,0.4-1
	c0-0.3-0.1-0.6-0.2-0.9C18,9.2,17.6,8.8,17,8.2c-0.6-0.6-1-1.1-1.2-1.5c-0.2-0.3-0.2-0.7-0.2-1c0-0.6,0.3-1.2,0.8-1.7
	c0.5-0.5,1.2-0.7,2-0.7c0.4,0,0.9,0.1,1.5,0.2c0.4,0.1,0.6,0.1,0.7,0.1c0.1,0,0.2,0,0.3-0.1c0.1-0.1,0.2-0.2,0.3-0.3H21.6z"/>
<path id="XMLID_46_" class="st5" d="M77.8,3.9c0-0.1,0-0.1,0-0.2c0,0,0,0-0.1,0c0,0-0.1,0-0.1,0c-0.1,0.1-0.1,0.2-0.2,0.4
	c-0.1,0.2-0.1,0.3-0.1,0.5c0,0,0,0.1,0,0.1c0,0,0,0,0.1,0c0,0,0.1,0,0.1-0.1c0.1-0.1,0.1-0.2,0.2-0.3C77.8,4.2,77.8,4.1,77.8,3.9
	 M78.3,3.7L78,4.6l0,0.1c0,0,0,0,0,0c0,0,0,0,0,0c0,0,0,0,0,0c0,0,0.1,0,0.1,0c0,0,0.1-0.1,0.1-0.1l0.1,0c-0.1,0.1-0.2,0.2-0.2,0.3
	C78,5,77.9,5,77.8,5c-0.1,0-0.1,0-0.1,0c0,0,0-0.1,0-0.1c0,0,0-0.1,0.1-0.2l0-0.1c-0.1,0.2-0.2,0.3-0.4,0.4C77.3,5,77.2,5,77.1,5
	c-0.1,0-0.2,0-0.2-0.1c0-0.1-0.1-0.1-0.1-0.2c0-0.1,0-0.3,0.1-0.5c0.1-0.2,0.2-0.3,0.4-0.4c0.1-0.1,0.2-0.1,0.3-0.1
	c0.1,0,0.1,0,0.1,0c0,0,0.1,0.1,0.1,0.2L78,3.7L78.3,3.7z M75.9,3.6l-0.2,0.6C75.8,4.1,75.9,4,76,3.9c0.1-0.1,0.2-0.2,0.2-0.2
	c0.1,0,0.1-0.1,0.2-0.1c0.1,0,0.1,0,0.1,0.1c0,0,0.1,0.1,0.1,0.1c0,0.1,0,0.1,0,0.2l-0.2,0.6c0,0.1,0,0.1,0,0.1c0,0,0,0,0,0
	c0,0,0,0,0,0c0,0,0,0,0,0c0,0,0.1-0.1,0.1-0.1c0,0,0,0,0-0.1l0.1,0C76.5,4.8,76.3,5,76.1,5c-0.1,0-0.1,0-0.2,0c0,0-0.1-0.1-0.1-0.1
	c0,0,0-0.1,0-0.2L76.2,4c0,0,0-0.1,0-0.1c0,0,0,0,0,0c0,0,0,0,0,0c0,0-0.1,0-0.1,0.1c-0.1,0.1-0.3,0.3-0.4,0.5l-0.1,0.4H75L75.3,4
	c0-0.1,0-0.2,0-0.2c0,0,0,0,0,0c0,0,0,0,0,0c0,0-0.1,0-0.1,0l0-0.1L75.9,3.6L75.9,3.6z M74.4,3.9c0-0.1,0-0.1,0-0.2c0,0,0,0-0.1,0
	c0,0-0.1,0-0.1,0C74.1,3.8,74,4,74,4.1c-0.1,0.2-0.1,0.3-0.1,0.5c0,0,0,0.1,0,0.1c0,0,0,0,0.1,0c0,0,0.1,0,0.1-0.1
	c0.1-0.1,0.1-0.2,0.2-0.3C74.4,4.2,74.4,4.1,74.4,3.9z M74.9,3.7l-0.3,0.9l0,0.1c0,0,0,0,0,0c0,0,0,0,0,0c0,0,0,0,0,0
	c0,0,0.1,0,0.1,0c0,0,0.1-0.1,0.1-0.1l0.1,0c-0.1,0.1-0.2,0.2-0.2,0.3C74.6,5,74.5,5,74.4,5c-0.1,0-0.1,0-0.1,0c0,0,0-0.1,0-0.1
	c0,0,0-0.1,0.1-0.2l0-0.1c-0.1,0.2-0.2,0.3-0.4,0.4C73.9,5,73.8,5,73.7,5c-0.1,0-0.2,0-0.2-0.1c0-0.1-0.1-0.1-0.1-0.2
	c0-0.1,0-0.3,0.1-0.5c0.1-0.2,0.2-0.3,0.4-0.4c0.1-0.1,0.2-0.1,0.3-0.1c0.1,0,0.1,0,0.1,0c0,0,0.1,0.1,0.1,0.2l0.1-0.2L74.9,3.7z
	 M73.3,3.6l-0.3,1c0,0.1,0,0.1,0,0.1c0,0,0,0,0,0c0,0,0,0,0,0c0,0,0,0,0.1,0c0,0,0.1-0.1,0.2-0.2l0.1,0C73.1,4.9,72.9,5,72.8,5
	c-0.1,0-0.1,0-0.2-0.1c0,0-0.1-0.1-0.1-0.1c0,0,0-0.1,0-0.1L72.8,4c0-0.1,0-0.1,0-0.1c0,0,0,0,0-0.1c0,0,0,0-0.1,0c0,0,0,0-0.1,0
	l0-0.1L73.3,3.6L73.3,3.6z M73.2,3c0.1,0,0.1,0,0.2,0.1c0,0,0.1,0.1,0.1,0.1c0,0.1,0,0.1-0.1,0.1c0,0-0.1,0.1-0.2,0.1
	c-0.1,0-0.1,0-0.2-0.1c0,0-0.1-0.1-0.1-0.1c0-0.1,0-0.1,0.1-0.1C73.1,3,73.1,3,73.2,3z M72.6,3l-0.5,1.6c0,0.1,0,0.2,0,0.2
	c0,0,0,0,0,0c0,0,0,0,0,0c0,0,0,0,0.1,0c0.1,0,0.1-0.1,0.2-0.2l0.1,0c-0.1,0.1-0.2,0.2-0.3,0.3C72,5,71.9,5,71.8,5
	c-0.1,0-0.1,0-0.2,0c0,0-0.1-0.1-0.1-0.1c0,0,0-0.1,0-0.2l0.4-1.3c0-0.1,0-0.1,0-0.1c0,0,0,0,0-0.1c0,0-0.1,0-0.1,0l0-0.1L72.6,3
	L72.6,3z M71,3.9c0-0.1,0-0.1,0-0.2c0,0,0,0-0.1,0c0,0-0.1,0-0.1,0c-0.1,0.1-0.1,0.2-0.2,0.4c-0.1,0.2-0.1,0.3-0.1,0.5
	c0,0,0,0.1,0,0.1c0,0,0,0,0.1,0c0,0,0.1,0,0.1-0.1c0.1-0.1,0.1-0.2,0.2-0.3C70.9,4.2,71,4.1,71,3.9z M71.5,3.7l-0.3,0.9l0,0.1
	c0,0,0,0,0,0c0,0,0,0,0,0c0,0,0,0,0,0c0,0,0.1,0,0.1,0c0,0,0.1-0.1,0.1-0.1l0.1,0c-0.1,0.1-0.2,0.2-0.2,0.3C71.1,5,71,5,70.9,5
	c-0.1,0-0.1,0-0.1,0c0,0,0-0.1,0-0.1c0,0,0-0.1,0.1-0.2l0-0.1c-0.1,0.2-0.2,0.3-0.4,0.4C70.4,5,70.4,5,70.3,5c-0.1,0-0.2,0-0.2-0.1
	C70,4.8,70,4.7,70,4.6c0-0.1,0-0.3,0.1-0.5c0.1-0.2,0.2-0.3,0.4-0.4c0.1-0.1,0.2-0.1,0.3-0.1c0.1,0,0.1,0,0.1,0c0,0,0.1,0.1,0.1,0.2
	l0.1-0.2L71.5,3.7z M70,3.3l-0.1,0.4h0.2L70,3.8h-0.2l-0.3,0.8c0,0.1,0,0.1,0,0.1c0,0,0,0,0,0c0,0,0,0,0,0c0,0,0,0,0.1,0
	c0,0,0.1-0.1,0.2-0.2l0.1,0c-0.1,0.1-0.2,0.2-0.2,0.2C69.5,5,69.4,5,69.3,5c-0.1,0-0.1,0-0.2,0c0,0-0.1-0.1-0.1-0.1
	c0-0.1,0-0.1,0-0.2l0.2-0.8h-0.2l0-0.1c0.1,0,0.2-0.1,0.3-0.2C69.7,3.5,69.8,3.4,70,3.3L70,3.3z M69,3.6l-0.3,1c0,0.1,0,0.1,0,0.1
	c0,0,0,0,0,0c0,0,0,0,0,0c0,0,0,0,0.1,0c0,0,0.1-0.1,0.2-0.2l0.1,0C68.8,4.9,68.6,5,68.4,5c-0.1,0-0.1,0-0.2-0.1
	c0,0-0.1-0.1-0.1-0.1c0,0,0-0.1,0-0.1L68.5,4c0-0.1,0-0.1,0-0.1c0,0,0,0,0-0.1c0,0,0,0-0.1,0c0,0,0,0-0.1,0l0-0.1L69,3.6L69,3.6z
	 M68.9,3C68.9,3,69,3,69,3.1c0,0,0.1,0.1,0.1,0.1c0,0.1,0,0.1-0.1,0.1c0,0-0.1,0.1-0.2,0.1c-0.1,0-0.1,0-0.2-0.1
	c0,0-0.1-0.1-0.1-0.1c0-0.1,0-0.1,0.1-0.1C68.8,3,68.8,3,68.9,3z M66.8,3.9c0-0.1,0-0.1,0-0.2c0,0,0,0-0.1,0c0,0-0.1,0-0.1,0
	c-0.1,0.1-0.1,0.2-0.2,0.4c-0.1,0.2-0.1,0.3-0.1,0.5c0,0,0,0.1,0,0.1c0,0,0,0,0.1,0c0,0,0.1,0,0.1-0.1c0.1-0.1,0.1-0.2,0.2-0.3
	C66.7,4.2,66.8,4.1,66.8,3.9z M67.3,3.7L67,4.6l0,0.1c0,0,0,0,0,0c0,0,0,0,0,0c0,0,0,0,0,0c0,0,0.1,0,0.1,0c0,0,0.1-0.1,0.1-0.1
	l0.1,0c-0.1,0.1-0.2,0.2-0.2,0.3C66.9,5,66.8,5,66.7,5c-0.1,0-0.1,0-0.1,0c0,0,0-0.1,0-0.1c0,0,0-0.1,0.1-0.2l0-0.1
	c-0.1,0.2-0.2,0.3-0.4,0.4C66.2,5,66.1,5,66.1,5c-0.1,0-0.2,0-0.2-0.1c0-0.1-0.1-0.1-0.1-0.2c0-0.1,0-0.3,0.1-0.5
	C66,4,66.1,3.9,66.3,3.8c0.1-0.1,0.2-0.1,0.3-0.1c0.1,0,0.1,0,0.1,0c0,0,0.1,0.1,0.1,0.2l0.1-0.2L67.3,3.7z M64.8,3.6l-0.2,0.6
	c0.1-0.2,0.2-0.3,0.3-0.4c0.1-0.1,0.2-0.2,0.2-0.2c0.1,0,0.1-0.1,0.2-0.1c0.1,0,0.1,0,0.1,0.1c0,0,0.1,0.1,0.1,0.1
	c0,0.1,0,0.1,0,0.2l-0.2,0.6c0,0.1,0,0.1,0,0.1c0,0,0,0,0,0c0,0,0,0,0,0c0,0,0,0,0,0c0,0,0.1-0.1,0.1-0.1c0,0,0,0,0-0.1l0.1,0
	C65.4,4.8,65.2,5,65.1,5c-0.1,0-0.1,0-0.2,0c0,0-0.1-0.1-0.1-0.1c0,0,0-0.1,0-0.2L65.1,4c0,0,0-0.1,0-0.1c0,0,0,0,0,0c0,0,0,0,0,0
	c0,0-0.1,0-0.1,0.1c-0.1,0.1-0.3,0.3-0.4,0.5l-0.1,0.4H64L64.3,4c0-0.1,0-0.2,0-0.2c0,0,0,0,0,0c0,0,0,0,0,0c0,0-0.1,0-0.1,0l0-0.1
	L64.8,3.6L64.8,3.6z M63.9,3.6l-0.3,1c0,0.1,0,0.1,0,0.1c0,0,0,0,0,0c0,0,0,0,0,0c0,0,0,0,0.1,0c0,0,0.1-0.1,0.2-0.2l0.1,0
	C63.7,4.9,63.5,5,63.3,5c-0.1,0-0.1,0-0.2-0.1c0,0-0.1-0.1-0.1-0.1c0,0,0-0.1,0-0.1L63.3,4c0-0.1,0-0.1,0-0.1c0,0,0,0,0-0.1
	c0,0,0,0-0.1,0c0,0,0,0-0.1,0l0-0.1L63.9,3.6L63.9,3.6z M63.8,3c0.1,0,0.1,0,0.2,0.1c0,0,0.1,0.1,0.1,0.1c0,0.1,0,0.1-0.1,0.1
	c0,0-0.1,0.1-0.2,0.1c-0.1,0-0.1,0-0.2-0.1c0,0-0.1-0.1-0.1-0.1c0-0.1,0-0.1,0.1-0.1C63.6,3,63.7,3,63.8,3z M62.8,4.6L62.8,4.6
	c-0.1,0.1-0.2,0.2-0.3,0.3C62.4,5,62.3,5,62.1,5c-0.1,0-0.2,0-0.3-0.1c-0.1,0-0.1-0.1-0.2-0.2c0-0.1-0.1-0.1-0.1-0.2
	c0-0.2,0-0.3,0.1-0.5C61.9,4,62,3.9,62.2,3.8c0.2-0.1,0.3-0.1,0.5-0.1c0.1,0,0.2,0,0.3,0.1C63,3.8,63,3.8,63,3.9C63,4,63,4,62.9,4.1
	c0,0-0.1,0.1-0.2,0.1c0,0-0.1,0-0.1,0c0,0,0-0.1,0-0.1c0-0.1,0-0.1,0.1-0.1c0,0,0.1,0,0.1-0.1c0,0,0,0,0,0c0,0,0,0-0.1,0
	c-0.1,0-0.2,0-0.2,0.1c-0.1,0.1-0.2,0.2-0.2,0.3c-0.1,0.1-0.1,0.3-0.1,0.4c0,0.1,0,0.2,0.1,0.2c0.1,0.1,0.1,0.1,0.2,0.1
	c0.1,0,0.1,0,0.2,0C62.7,4.7,62.7,4.7,62.8,4.6z M60.7,3.6l-0.3,0.9c0,0,0,0.1,0,0.1c0,0,0,0,0,0c0,0,0,0,0,0c0,0,0.1,0,0.2-0.1
	c0.1-0.1,0.2-0.3,0.4-0.5l0.1-0.4l0.4,0l-0.3,0.9c0,0.1,0,0.1,0,0.1c0,0,0,0,0,0c0,0,0,0,0,0c0,0,0,0,0,0c0,0,0.1-0.1,0.1-0.2l0.1,0
	C61.3,4.9,61.1,5,60.9,5c-0.1,0-0.1,0-0.2,0c0,0-0.1-0.1-0.1-0.1c0-0.1,0-0.1,0-0.2l0.1-0.2c-0.1,0.2-0.2,0.3-0.3,0.4
	c-0.1,0.1-0.2,0.2-0.2,0.2c-0.1,0-0.1,0-0.2,0C60.1,5,60,5,60,4.9c0,0-0.1-0.1-0.1-0.1c0,0,0-0.1,0-0.2L60.1,4c0-0.1,0-0.2,0-0.2
	c0,0,0,0,0,0c0,0,0,0,0,0c0,0-0.1,0-0.1,0l0-0.1L60.7,3.6L60.7,3.6z M59.6,4.6L59.6,4.6c-0.1,0.1-0.2,0.2-0.3,0.3
	C59.2,5,59.1,5,58.9,5c-0.1,0-0.2,0-0.3-0.1c-0.1,0-0.1-0.1-0.2-0.2c0-0.1-0.1-0.1-0.1-0.2c0-0.2,0-0.3,0.1-0.5
	C58.7,4,58.8,3.9,59,3.8c0.2-0.1,0.3-0.1,0.5-0.1c0.1,0,0.2,0,0.3,0.1c0.1,0,0.1,0.1,0.1,0.2c0,0.1,0,0.1-0.1,0.2
	c0,0-0.1,0.1-0.2,0.1c0,0-0.1,0-0.1,0c0,0,0-0.1,0-0.1c0-0.1,0-0.1,0.1-0.1c0,0,0.1,0,0.1-0.1c0,0,0,0,0,0c0,0,0,0-0.1,0
	c-0.1,0-0.2,0-0.2,0.1C59.1,3.9,59,4,58.9,4.1c-0.1,0.1-0.1,0.3-0.1,0.4c0,0.1,0,0.2,0.1,0.2c0.1,0.1,0.1,0.1,0.2,0.1
	c0.1,0,0.1,0,0.2,0C59.4,4.7,59.5,4.7,59.6,4.6z"/>
</svg>
