<?xml version="1.0" encoding="utf-8"?>
<!-- Generator: Adobe Illustrator 19.0.0, SVG Export Plug-In . SVG Version: 6.00 Build 0)  -->
<svg version="1.1" id="Layer_1" xmlns="http://www.w3.org/2000/svg" xmlns:xlink="http://www.w3.org/1999/xlink" x="0px" y="0px"
	 viewBox="0 0 100 40" style="enable-background:new 0 0 100 40;" xml:space="preserve">
<style type="text/css">
	.st0{fill-rule:evenodd;clip-rule:evenodd;fill:#1F355E;}
</style>
<path id="XMLID_37_" class="st0" d="M93,33.7c0.2-0.4,0.4-0.6,0.6-0.8c0.2-0.2,0.5-0.3,0.7-0.3c0.2,0,0.3,0.1,0.5,0.2
	c0.1,0.1,0.2,0.3,0.2,0.4c0,0.3-0.1,0.5-0.4,0.5c-0.1,0-0.2-0.1-0.3-0.3c-0.1-0.2-0.2-0.3-0.4-0.3c-0.2,0-0.3,0.1-0.5,0.3
	c-0.2,0.2-0.3,0.4-0.3,0.6C93,34.2,93,34.6,93,35.3c0,0.6,0,1,0.1,1.1c0.1,0.1,0.2,0.1,0.4,0.2c0.1,0,0.1,0,0.1,0.1
	c0,0.1-0.1,0.1-0.2,0.1h-1.5c-0.1,0-0.2,0-0.2-0.1c0-0.1,0.1-0.1,0.2-0.1c0.2,0,0.3-0.1,0.4-0.2c0-0.1,0.1-0.5,0.1-1.2
	c0-1,0-1.7-0.1-1.9c0-0.2-0.2-0.3-0.5-0.3c-0.1,0-0.2,0-0.2-0.1c0,0,0,0,0-0.1c0,0,0.2,0,0.4,0l0.9,0C92.9,32.8,92.9,33.2,93,33.7
	L93,33.7z M89.8,34.2c-0.1,0.1-0.3,0.3-0.6,0.5c-0.3,0.2-0.6,0.3-0.7,0.5c-0.1,0.2-0.2,0.3-0.2,0.6c0,0.2,0.1,0.4,0.2,0.5
	c0.1,0.1,0.3,0.2,0.4,0.2c0.2,0,0.4-0.1,0.5-0.2c0.2-0.1,0.3-0.3,0.4-0.4c0.1-0.2,0.1-0.4,0.1-0.8C89.8,34.8,89.8,34.5,89.8,34.2z
	 M89.8,36.1c-0.2,0.2-0.3,0.4-0.6,0.5c-0.2,0.1-0.5,0.2-0.7,0.2c-0.3,0-0.6-0.1-0.8-0.3c-0.2-0.2-0.3-0.4-0.3-0.7
	c0-0.2,0.1-0.4,0.2-0.6c0.1-0.2,0.2-0.3,0.4-0.4c0.1-0.1,0.4-0.2,0.7-0.3c0.5-0.2,0.8-0.3,0.9-0.4c0.1-0.1,0.2-0.3,0.2-0.4
	c0-0.3-0.1-0.5-0.2-0.7c-0.1-0.2-0.3-0.2-0.6-0.2c-0.2,0-0.4,0-0.5,0.1c-0.1,0.1-0.2,0.3-0.2,0.5c-0.1,0.3-0.2,0.4-0.4,0.4
	c-0.1,0-0.1,0-0.2-0.1c-0.1-0.1-0.1-0.2-0.1-0.3c0-0.2,0.1-0.4,0.4-0.6c0.3-0.2,0.6-0.3,1.1-0.3c0.4,0,0.7,0.1,0.9,0.2
	c0.2,0.1,0.4,0.2,0.4,0.4c0.1,0.1,0.1,0.4,0.1,0.8l0,1.3c0,0.5,0,0.8,0.1,1c0.1,0.2,0.2,0.3,0.3,0.3c0,0,0.1,0,0.1,0l0.1,0
	c0.1,0,0.1,0,0.1,0.1c0,0.1-0.3,0.2-0.9,0.2c-0.2,0-0.3,0-0.4-0.1C89.8,36.5,89.8,36.3,89.8,36.1z M85.5,33c0,0.7-0.1,1.4-0.1,2.1
	c0,0.5,0.1,0.9,0.2,1c0.1,0.2,0.3,0.2,0.5,0.2c0.2,0,0.4-0.1,0.6-0.2c0.1,0,0.1-0.1,0.1-0.1c0,0,0.1,0,0.1,0.1
	c0,0.1-0.1,0.2-0.3,0.4c-0.2,0.2-0.5,0.2-0.8,0.2c-0.3,0-0.6-0.1-0.7-0.3c-0.2-0.2-0.2-0.6-0.2-1c0-0.5,0-1.3,0.1-2.4
	c0,0-0.2,0-0.5,0l-0.3,0c-0.1,0-0.1,0-0.1-0.1c0,0,0-0.1,0.1-0.1c0.1,0,0.3-0.2,0.7-0.4c0.3-0.2,0.5-0.6,0.5-1c0-0.1,0-0.2,0.1-0.2
	c0.1,0,0.1,0,0.1,0.1c0,0,0,0.1,0,0.1c0,0.1,0,0.3,0,0.4l0,0.7l1,0c0.2,0,0.3,0,0.3,0.1c0,0.1,0,0.2-0.1,0.3
	C86.6,33,86.2,33,85.5,33L85.5,33z M80,32.6c0.1,0.2,0.1,0.5,0.1,0.9c0.2-0.3,0.4-0.5,0.7-0.7c0.2-0.2,0.5-0.2,0.8-0.2
	c0.2,0,0.4,0,0.6,0.1c0.2,0.1,0.4,0.2,0.5,0.4c0.1,0.2,0.2,0.5,0.2,1l0,1.6c0,0.3,0,0.5,0.1,0.6c0,0.1,0.2,0.1,0.3,0.2
	c0.1,0,0.2,0.1,0.2,0.1c0,0,0,0.1-0.1,0.1c0,0,0,0-0.1,0c-0.1,0-0.4,0-0.6,0c-0.3,0-0.5,0-0.8,0c-0.1,0-0.2,0-0.2-0.1
	c0,0,0-0.1,0.1-0.1c0.2,0,0.3-0.1,0.3-0.1c0.1,0,0.1-0.1,0.1-0.2c0-0.1,0-0.3,0.1-0.7c0-0.4,0-0.7,0-1c0-0.7-0.1-1.1-0.3-1.3
	c-0.2-0.2-0.4-0.3-0.6-0.3c-0.4,0-0.7,0.2-0.9,0.6c-0.2,0.4-0.4,1.1-0.4,2c0,0.4,0,0.7,0.1,0.8c0.1,0.1,0.2,0.2,0.4,0.2
	c0.1,0,0.1,0,0.1,0.1c0,0,0,0.1-0.1,0.1l-0.2,0c-0.1,0-0.4,0-0.9,0l-0.4,0c-0.1,0-0.2,0-0.2-0.1c0-0.1,0.1-0.1,0.2-0.1
	c0.1,0,0.2-0.1,0.3-0.1c0.1-0.1,0.1-0.3,0.1-0.7c0-0.4,0-0.9,0-1.5c0-0.6,0-0.9-0.1-1.1c-0.1-0.1-0.2-0.2-0.3-0.3
	c-0.1,0-0.2-0.1-0.2-0.1c0-0.1,0-0.1,0.1-0.1l0.4,0C79.4,32.6,79.6,32.6,80,32.6z M75.4,34.2c0.4,0,0.8,0,1.2,0l0.3,0
	c0.2,0,0.3,0,0.4-0.1c0.1-0.1,0.2-0.2,0.2-0.4c0-0.3-0.1-0.5-0.3-0.7c-0.2-0.2-0.4-0.3-0.6-0.3c-0.2,0-0.5,0.1-0.7,0.3
	C75.7,33.3,75.5,33.7,75.4,34.2z M75.4,34.5c0,0.2,0,0.3,0,0.4c0,0.4,0.1,0.8,0.4,1.1c0.3,0.3,0.6,0.5,1,0.5c0.4,0,0.7-0.2,1.1-0.5
	c0.1-0.1,0.2-0.1,0.2-0.1c0.1,0,0.1,0,0.1,0.1c-0.1,0.2-0.3,0.4-0.6,0.6c-0.3,0.2-0.6,0.2-1,0.2c-0.5,0-1-0.2-1.3-0.6
	c-0.4-0.4-0.5-0.9-0.5-1.4c0-0.6,0.2-1.1,0.6-1.6c0.4-0.4,0.8-0.6,1.3-0.6c0.4,0,0.8,0.2,1.2,0.5c0.3,0.3,0.5,0.7,0.5,1.1
	c0,0.1,0,0.1,0,0.1c0,0-0.1,0-0.4,0L75.4,34.5z M70.6,34.8c0-0.6,0.2-1.1,0.6-1.5c0.4-0.4,0.8-0.7,1.4-0.7c0.3,0,0.7,0.1,1,0.3
	c0.3,0.2,0.5,0.4,0.5,0.6c0,0.1,0,0.2-0.1,0.3c-0.1,0.1-0.1,0.1-0.2,0.1c-0.2,0-0.3-0.1-0.4-0.4c-0.1-0.4-0.4-0.7-0.8-0.7
	c-0.4,0-0.6,0.2-0.8,0.5c-0.2,0.3-0.3,0.7-0.3,1.2c0,0.6,0.1,1.1,0.4,1.5c0.3,0.4,0.6,0.6,1,0.6c0.2,0,0.5-0.1,0.7-0.3
	c0.2-0.2,0.4-0.4,0.4-0.7c0-0.1,0.1-0.1,0.1-0.1c0.1,0,0.1,0,0.1,0.1c0,0.3-0.1,0.6-0.4,0.9c-0.3,0.3-0.7,0.4-1.2,0.4
	c-0.5,0-1-0.2-1.3-0.6C70.7,35.7,70.6,35.3,70.6,34.8z M66.3,34.2c-0.1,0.1-0.3,0.3-0.6,0.5c-0.3,0.2-0.6,0.3-0.7,0.5
	c-0.1,0.2-0.2,0.3-0.2,0.6c0,0.2,0.1,0.4,0.2,0.5c0.1,0.1,0.3,0.2,0.4,0.2c0.2,0,0.4-0.1,0.5-0.2c0.2-0.1,0.3-0.3,0.4-0.4
	c0.1-0.2,0.1-0.4,0.1-0.8C66.3,34.8,66.3,34.5,66.3,34.2z M66.3,36.1c-0.2,0.2-0.3,0.4-0.6,0.5c-0.2,0.1-0.5,0.2-0.7,0.2
	c-0.3,0-0.6-0.1-0.8-0.3c-0.2-0.2-0.3-0.4-0.3-0.7c0-0.2,0.1-0.4,0.2-0.6c0.1-0.2,0.2-0.3,0.4-0.4c0.1-0.1,0.4-0.2,0.7-0.3
	c0.5-0.2,0.8-0.3,0.9-0.4c0.1-0.1,0.2-0.3,0.2-0.4c0-0.3-0.1-0.5-0.2-0.7c-0.1-0.2-0.3-0.2-0.6-0.2c-0.2,0-0.4,0-0.5,0.1
	c-0.1,0.1-0.2,0.3-0.2,0.5c-0.1,0.3-0.2,0.4-0.4,0.4c-0.1,0-0.1,0-0.2-0.1c-0.1-0.1-0.1-0.2-0.1-0.3c0-0.2,0.1-0.4,0.4-0.6
	c0.3-0.2,0.6-0.3,1.1-0.3c0.4,0,0.7,0.1,0.9,0.2c0.2,0.1,0.4,0.2,0.4,0.4c0.1,0.1,0.1,0.4,0.1,0.8l0,1.3c0,0.5,0,0.8,0.1,1
	c0.1,0.2,0.2,0.3,0.3,0.3c0,0,0.1,0,0.1,0l0.1,0c0.1,0,0.1,0,0.1,0.1c0,0.1-0.3,0.2-0.9,0.2c-0.2,0-0.3,0-0.4-0.1
	C66.4,36.5,66.3,36.3,66.3,36.1z M60.2,34.7c0,0.6,0,1,0,1.1c0,0.2,0.1,0.3,0.3,0.5c0.2,0.1,0.4,0.2,0.7,0.2c0.4,0,0.7-0.2,0.9-0.5
	c0.2-0.3,0.4-0.7,0.4-1.2c0-0.5-0.1-1-0.4-1.3c-0.2-0.3-0.5-0.5-0.9-0.5c-0.3,0-0.6,0.1-0.8,0.4C60.3,33.7,60.2,34.1,60.2,34.7
	L60.2,34.7z M60.2,32.6c0,0.1,0,0.3,0,0.4c0,0.1,0,0.2,0,0.4c0.3-0.3,0.6-0.5,0.7-0.6c0.2-0.1,0.4-0.1,0.6-0.1
	c0.5,0,0.9,0.2,1.3,0.6c0.3,0.4,0.5,0.9,0.5,1.4c0,0.6-0.2,1.1-0.6,1.4c-0.4,0.4-0.9,0.6-1.4,0.6c-0.4,0-0.7-0.1-1.1-0.3
	c-0.1,0.4-0.1,0.8-0.1,1.3c0,0.3,0,0.5,0,0.6l0,0.2c0.1,0.2,0.2,0.3,0.5,0.4c0.1,0,0.1,0.1,0.1,0.1l0,0l0,0c-0.4,0-0.7,0-0.9,0
	c-0.6,0-0.9,0-1,0c-0.1,0-0.1,0-0.1-0.1c0-0.1,0-0.1,0.1-0.1c0.3,0,0.5-0.1,0.6-0.2c0.1-0.1,0.1-0.6,0.1-1.4c0-0.8,0-1.3,0-1.5
	l0-1.3l0-0.8c0-0.4,0-0.7-0.1-0.8c-0.1-0.1-0.2-0.2-0.4-0.2c-0.1,0-0.1,0-0.1-0.1c0,0,0,0,0-0.1c0,0,0.2,0,0.4,0L60.2,32.6z
	 M57.4,30.8c0.1-0.1,0.1-0.2,0.2-0.3c0-0.1,0.1-0.1,0.1-0.1c0,0,0.1,0,0.1,0c0,0.1,0.1,0.3,0.1,0.7l0.1,0.9c0,0.1,0,0.1-0.1,0.1
	c0,0-0.1,0-0.1-0.1c-0.2-0.4-0.4-0.8-0.7-1c-0.3-0.3-0.7-0.4-1.1-0.4c-0.4,0-0.7,0.1-0.9,0.3c-0.2,0.2-0.3,0.5-0.3,0.7
	c0,0.3,0.1,0.6,0.3,0.7c0.2,0.2,0.7,0.4,1.3,0.6c0.5,0.2,0.9,0.3,1.1,0.4c0.2,0.1,0.4,0.3,0.6,0.6c0.2,0.3,0.2,0.5,0.2,0.8
	c0,0.5-0.2,1-0.6,1.3c-0.4,0.4-0.9,0.6-1.5,0.6c-0.5,0-1.1-0.2-1.6-0.5c-0.1,0.1-0.2,0.2-0.2,0.3c0,0.1-0.1,0.2-0.1,0.2
	c-0.1,0-0.1-0.1-0.1-0.2c0-0.1-0.1-0.7-0.1-1.8c0,0,0-0.1,0.1-0.1c0,0,0.1,0,0.1,0.1c0.5,1.2,1.2,1.8,2,1.8c0.4,0,0.8-0.1,1-0.4
	c0.2-0.3,0.4-0.6,0.4-0.9c0-0.2-0.1-0.5-0.2-0.6c-0.1-0.2-0.3-0.4-0.5-0.5c-0.2-0.1-0.6-0.3-1-0.4c-0.6-0.2-1-0.4-1.2-0.6
	c-0.2-0.2-0.4-0.4-0.5-0.6C54.1,32.4,54,32.2,54,32c0-0.4,0.2-0.8,0.6-1.1c0.4-0.3,0.9-0.5,1.4-0.5c0.2,0,0.4,0,0.7,0.1
	C56.9,30.5,57.1,30.6,57.4,30.8L57.4,30.8z M46.7,33.4c-0.3,0.2-0.6,0.4-0.8,0.7c-0.2,0.2-0.3,0.5-0.3,0.9c0,0.4,0.1,0.7,0.4,1
	c0.3,0.3,0.5,0.4,0.9,0.4c0.5,0,1-0.3,1.5-0.8c-0.3-0.5-0.5-0.8-0.7-1.1C47.5,34.2,47.2,33.8,46.7,33.4z M47.1,32.7
	c0.4-0.4,0.6-0.7,0.6-1.1c0-0.2-0.1-0.4-0.2-0.6c-0.2-0.2-0.3-0.3-0.6-0.3c-0.2,0-0.4,0.1-0.5,0.2c-0.1,0.1-0.2,0.3-0.2,0.5
	C46.2,31.8,46.5,32.2,47.1,32.7z M49,35.1c0.3,0.6,0.5,0.9,0.7,1c0.2,0.1,0.3,0.2,0.5,0.2c0.2,0,0.4-0.1,0.6-0.3c0,0,0,0,0.1,0
	c0.1,0,0.1,0,0.1,0.1c0,0.1-0.1,0.2-0.4,0.4c-0.3,0.2-0.6,0.3-0.9,0.3c-0.2,0-0.3-0.1-0.5-0.2c-0.1-0.1-0.4-0.4-0.6-0.9
	c-0.7,0.7-1.4,1-2,1c-0.4,0-0.8-0.1-1.1-0.4c-0.3-0.3-0.5-0.6-0.5-1c0-0.4,0.1-0.7,0.4-1.1c0.3-0.3,0.7-0.7,1.3-1.1
	c-0.6-0.6-0.9-1.1-0.9-1.5c0-0.4,0.1-0.7,0.4-0.9c0.3-0.2,0.6-0.3,0.9-0.3c0.3,0,0.6,0.1,0.8,0.3c0.2,0.2,0.3,0.4,0.3,0.7
	c0,0.4-0.3,0.9-0.8,1.3c0.7,0.6,1.3,1.3,1.7,2.1c0.4-0.6,0.6-1.1,0.6-1.5c0-0.2,0-0.3-0.1-0.4c-0.1-0.1-0.2-0.1-0.4-0.1
	c-0.2,0-0.2,0-0.2-0.1c0-0.1,0-0.1,0.1-0.1l0.8,0l1.1,0c0.1,0,0.1,0,0.1,0.1c0,0.1-0.1,0.1-0.2,0.1c-0.2,0-0.4,0.1-0.6,0.3
	c-0.2,0.2-0.4,0.5-0.6,1C49.4,34.6,49.2,34.9,49,35.1z M41.5,35.4c0,0.4-0.1,0.7-0.4,1c-0.3,0.3-0.6,0.4-1,0.4
	c-0.2,0-0.5-0.1-0.8-0.2c-0.2-0.1-0.3-0.1-0.3-0.1c-0.1,0-0.1,0-0.1,0.1c-0.1,0.1-0.1,0.1-0.1,0.1c0,0-0.1,0-0.1-0.1
	c0-0.1,0-0.3,0-0.6c0-0.3,0-0.5,0-0.5c0-0.1,0-0.2,0.1-0.2c0,0,0.1,0,0.1,0.1c0.1,0.4,0.3,0.7,0.5,0.9c0.2,0.3,0.5,0.4,0.8,0.4
	c0.2,0,0.4-0.1,0.6-0.2c0.2-0.1,0.2-0.3,0.2-0.5c0-0.3-0.3-0.7-0.9-0.9c-0.4-0.2-0.7-0.3-0.8-0.4c-0.1-0.1-0.2-0.2-0.3-0.3
	c-0.1-0.1-0.1-0.3-0.1-0.5c0-0.3,0.1-0.6,0.4-0.8c0.2-0.2,0.5-0.3,0.9-0.3c0.3,0,0.5,0.1,0.9,0.2c0.1,0,0.1,0,0.1,0
	c0,0,0.1,0,0.1-0.1c0,0,0.1-0.1,0.1-0.1c0,0,0.1,0,0.1,0c0,0,0,0.2,0.1,0.4c0,0.3,0,0.5,0,0.6c0,0.1,0,0.2-0.1,0.2
	c0,0-0.1,0-0.1-0.1c0-0.1-0.1-0.3-0.2-0.5c-0.1-0.2-0.3-0.4-0.4-0.5c-0.2-0.1-0.3-0.1-0.4-0.1c-0.2,0-0.4,0.1-0.6,0.2
	c-0.1,0.1-0.2,0.3-0.2,0.4c0,0.1,0,0.2,0.1,0.3c0.1,0.1,0.1,0.2,0.2,0.2c0.1,0,0.4,0.2,0.9,0.4c0.3,0.2,0.6,0.3,0.7,0.4
	c0.1,0.1,0.2,0.2,0.3,0.3C41.5,35.1,41.5,35.3,41.5,35.4z M37.7,35.4c0,0.4-0.1,0.7-0.4,1c-0.3,0.3-0.6,0.4-1,0.4
	c-0.2,0-0.5-0.1-0.8-0.2c-0.2-0.1-0.3-0.1-0.3-0.1c-0.1,0-0.1,0-0.1,0.1c-0.1,0.1-0.1,0.1-0.1,0.1c0,0-0.1,0-0.1-0.1
	c0-0.1,0-0.3,0-0.6c0-0.3,0-0.5,0-0.5c0-0.1,0-0.2,0.1-0.2c0,0,0.1,0,0.1,0.1c0.1,0.4,0.3,0.7,0.5,0.9c0.2,0.3,0.5,0.4,0.8,0.4
	c0.2,0,0.4-0.1,0.6-0.2c0.2-0.1,0.2-0.3,0.2-0.5c0-0.3-0.3-0.7-0.9-0.9c-0.4-0.2-0.7-0.3-0.8-0.4c-0.1-0.1-0.2-0.2-0.3-0.3
	c-0.1-0.1-0.1-0.3-0.1-0.5c0-0.3,0.1-0.6,0.4-0.8c0.2-0.2,0.5-0.3,0.9-0.3c0.3,0,0.5,0.1,0.9,0.2c0.1,0,0.1,0,0.1,0
	c0,0,0.1,0,0.1-0.1c0,0,0.1-0.1,0.1-0.1c0,0,0.1,0,0.1,0c0,0,0,0.2,0.1,0.4c0,0.3,0,0.5,0,0.6c0,0.1,0,0.2-0.1,0.2
	c0,0-0.1,0-0.1-0.1c0-0.1-0.1-0.3-0.2-0.5c-0.1-0.2-0.3-0.4-0.4-0.5c-0.2-0.1-0.3-0.1-0.4-0.1c-0.2,0-0.4,0.1-0.6,0.2
	c-0.1,0.1-0.2,0.3-0.2,0.4c0,0.1,0,0.2,0.1,0.3c0.1,0.1,0.1,0.2,0.2,0.2c0.1,0,0.4,0.2,0.9,0.4c0.3,0.2,0.6,0.3,0.7,0.4
	c0.1,0.1,0.2,0.2,0.3,0.3C37.6,35.1,37.7,35.3,37.7,35.4L37.7,35.4z M31.2,34.2c0.4,0,0.8,0,1.2,0l0.3,0c0.2,0,0.3,0,0.4-0.1
	c0.1-0.1,0.2-0.2,0.2-0.4c0-0.3-0.1-0.5-0.3-0.7c-0.2-0.2-0.4-0.3-0.6-0.3c-0.2,0-0.5,0.1-0.7,0.3C31.4,33.3,31.3,33.7,31.2,34.2z
	 M31.2,34.5c0,0.2,0,0.3,0,0.4c0,0.4,0.1,0.8,0.4,1.1c0.3,0.3,0.6,0.5,1,0.5c0.4,0,0.7-0.2,1.1-0.5c0.1-0.1,0.2-0.1,0.2-0.1
	c0.1,0,0.1,0,0.1,0.1c-0.1,0.2-0.3,0.4-0.6,0.6c-0.3,0.2-0.6,0.2-1,0.2c-0.5,0-1-0.2-1.3-0.6c-0.4-0.4-0.5-0.9-0.5-1.4
	c0-0.6,0.2-1.1,0.6-1.6c0.4-0.4,0.8-0.6,1.3-0.6c0.4,0,0.8,0.2,1.2,0.5c0.3,0.3,0.5,0.7,0.5,1.1c0,0.1,0,0.1,0,0.1c0,0-0.1,0-0.4,0
	L31.2,34.5z M26.4,32.6c0.1,0.2,0.1,0.5,0.1,0.9c0.2-0.3,0.4-0.5,0.7-0.7c0.2-0.2,0.5-0.2,0.8-0.2c0.2,0,0.4,0,0.6,0.1
	c0.2,0.1,0.4,0.2,0.5,0.4c0.1,0.2,0.2,0.5,0.2,1l0,1.6c0,0.3,0,0.5,0.1,0.6c0,0.1,0.2,0.1,0.3,0.2c0.1,0,0.2,0.1,0.2,0.1
	c0,0,0,0.1-0.1,0.1c0,0,0,0-0.1,0c-0.1,0-0.4,0-0.6,0c-0.3,0-0.5,0-0.8,0c-0.1,0-0.2,0-0.2-0.1c0,0,0-0.1,0.1-0.1
	c0.2,0,0.3-0.1,0.3-0.1c0.1,0,0.1-0.1,0.1-0.2c0-0.1,0-0.3,0.1-0.7c0-0.4,0-0.7,0-1c0-0.7-0.1-1.1-0.3-1.3c-0.2-0.2-0.4-0.3-0.6-0.3
	c-0.4,0-0.7,0.2-0.9,0.6c-0.2,0.4-0.4,1.1-0.4,2c0,0.4,0,0.7,0.1,0.8c0.1,0.1,0.2,0.2,0.4,0.2c0.1,0,0.1,0,0.1,0.1
	c0,0,0,0.1-0.1,0.1l-0.2,0c-0.1,0-0.4,0-0.9,0l-0.4,0c-0.1,0-0.2,0-0.2-0.1c0-0.1,0.1-0.1,0.2-0.1c0.1,0,0.2-0.1,0.3-0.1
	c0.1-0.1,0.1-0.3,0.1-0.7c0-0.4,0-0.9,0-1.5c0-0.6,0-0.9-0.1-1.1c-0.1-0.1-0.2-0.2-0.3-0.3c-0.1,0-0.2-0.1-0.2-0.1
	c0-0.1,0-0.1,0.1-0.1l0.4,0C25.8,32.6,26,32.6,26.4,32.6z M23.9,30.2c0,0.4,0,0.8,0,1.2l0,3l0,1.4c0,0.3,0,0.5,0.1,0.6
	c0.1,0.1,0.2,0.2,0.5,0.2c0.1,0,0.2,0,0.2,0.1c0,0.1,0,0.1-0.1,0.1c0,0,0,0-0.1,0c-0.3,0-0.7-0.1-1.2-0.1c-0.3,0-0.5,0-0.7,0
	c0,0-0.1,0-0.1,0c-0.1,0-0.1,0-0.1-0.1c0-0.1,0-0.1,0.1-0.1c0.3,0,0.5-0.1,0.6-0.2c0.1-0.2,0.1-0.4,0.1-0.8l0-2.7c0-0.9,0-1.4,0-1.6
	c0-0.2-0.1-0.3-0.2-0.4c-0.1-0.1-0.3-0.2-0.5-0.2c-0.1,0-0.2-0.1-0.2-0.1c0-0.1,0.1-0.1,0.2-0.1C23.1,30.3,23.5,30.3,23.9,30.2
	L23.9,30.2z M21.1,30.2c0,0.4,0,0.8,0,1.2l0,3l0,1.4c0,0.3,0,0.5,0.1,0.6c0.1,0.1,0.2,0.2,0.5,0.2c0.1,0,0.2,0,0.2,0.1
	c0,0.1,0,0.1-0.1,0.1c0,0,0,0-0.1,0c-0.3,0-0.7-0.1-1.2-0.1c-0.3,0-0.5,0-0.7,0c0,0-0.1,0-0.1,0c-0.1,0-0.1,0-0.1-0.1
	c0-0.1,0-0.1,0.1-0.1c0.3,0,0.5-0.1,0.6-0.2c0.1-0.2,0.1-0.4,0.1-0.8l0-2.7c0-0.9,0-1.4,0-1.6c0-0.2-0.1-0.3-0.2-0.4
	c-0.1-0.1-0.3-0.2-0.5-0.2c-0.1,0-0.2-0.1-0.2-0.1c0-0.1,0.1-0.1,0.2-0.1C20.3,30.3,20.8,30.3,21.1,30.2L21.1,30.2z M16.4,34.2
	c0.4,0,0.8,0,1.2,0l0.3,0c0.2,0,0.3,0,0.4-0.1c0.1-0.1,0.2-0.2,0.2-0.4c0-0.3-0.1-0.5-0.3-0.7c-0.2-0.2-0.4-0.3-0.6-0.3
	c-0.2,0-0.5,0.1-0.7,0.3C16.6,33.3,16.4,33.7,16.4,34.2z M16.4,34.5c0,0.2,0,0.3,0,0.4c0,0.4,0.1,0.8,0.4,1.1c0.3,0.3,0.6,0.5,1,0.5
	c0.4,0,0.7-0.2,1.1-0.5c0.1-0.1,0.2-0.1,0.2-0.1c0.1,0,0.1,0,0.1,0.1c-0.1,0.2-0.3,0.4-0.6,0.6c-0.3,0.2-0.6,0.2-1,0.2
	c-0.5,0-1-0.2-1.3-0.6c-0.4-0.4-0.5-0.9-0.5-1.4c0-0.6,0.2-1.1,0.6-1.6c0.4-0.4,0.8-0.6,1.3-0.6c0.4,0,0.8,0.2,1.2,0.5
	c0.3,0.3,0.5,0.7,0.5,1.1c0,0.1,0,0.1,0,0.1c0,0-0.1,0-0.4,0L16.4,34.5z M8.6,36.8H8.5c-0.2-0.3-0.3-0.8-0.5-1.3
	c-0.2-0.5-0.6-1.3-1-2.4c-0.5-1.1-0.8-1.8-1-2c-0.1-0.2-0.3-0.4-0.4-0.4c-0.1-0.1-0.2-0.1-0.3-0.1c-0.1,0-0.2,0-0.2-0.1
	c0-0.1,0.1-0.1,0.4-0.1h2.1c0.2,0,0.3,0,0.3,0.1c0,0.1-0.1,0.1-0.1,0.1c-0.4,0-0.6,0.2-0.6,0.5c0,0.1,0,0.2,0.1,0.3
	c0,0.1,0.3,0.7,0.7,1.7c0.4,1,0.8,1.8,1,2.4c0.1-0.2,0.3-0.9,0.6-1.8c0.3-1,0.5-1.6,0.6-1.8c-0.2-0.6-0.4-1-0.5-1.1
	c-0.1-0.1-0.3-0.1-0.4-0.2c-0.1,0-0.2,0-0.2-0.1c0-0.1,0.1-0.1,0.4-0.1h2.1c0.1,0,0.2,0,0.2,0c0,0,0,0,0,0.1c0,0-0.1,0.1-0.2,0.1
	c-0.4,0.1-0.5,0.2-0.5,0.5c0,0.5,0.5,1.9,1.5,4.3c0.2-0.5,0.4-1.1,0.6-1.6l0.5-1.5c0.2-0.4,0.2-0.7,0.3-0.8c0-0.1,0-0.2,0-0.3
	c0-0.4-0.2-0.6-0.6-0.6c-0.1,0-0.1,0-0.1-0.1c0,0,0-0.1,0-0.1c0,0,0.1,0,0.2,0h1.2c0.4,0,0.6,0,0.6,0c0,0,0.1,0,0.1,0.1
	s0,0.1-0.1,0.1c-0.4,0-0.6,0.2-0.8,0.6c-0.2,0.4-0.7,1.6-1.4,3.6c-0.4,1.1-0.6,1.8-0.8,2H12c-0.3-0.7-0.5-1.4-0.8-2
	c-0.2-0.6-0.6-1.5-1-2.6L8.6,36.8z"/>
<path id="XMLID_26_" class="st0" d="M37.5,17.5l-0.9,0l-5.3,0c-0.2,0-0.3,0.2,0,0.3c0.1,0,0.2,0,0.3,0.1c0.4,0.1,0.2,0.7,0.1,0.9
	l-0.6,2.6l-0.6,2.7c-0.2,0.9-1.1,0.9-1.4,0.4c-0.3-0.5-0.5-1.1-0.6-1.6c-0.1-0.4-0.1-0.8,0.1-1.2c0.1-0.1,0.2-0.3-0.1-0.2
	c-0.9,0.3-2.1,0.5-3-0.2c0.2,0,0.4,0,0.6,0c0.6,0,1.2-0.1,1.7-0.3c1-0.3,2-1,2-2c0-0.6-0.3-1-0.8-1.2c-0.5-0.2-1.2-0.2-1.8-0.2h-5.7
	c-0.3,0-0.2,0.2,0,0.3c0.5,0,0.6,0.3,0.5,0.7l-1.1,5l-0.2,0.7c-0.1,0.4-0.4,0.6-1,0.6c-0.1,0-0.2,0.2,0,0.2h5c0.1,0,0.2-0.2,0-0.2
	c-0.2-0.1-0.6,0-0.7-0.1c-0.2-0.1-0.2-0.3-0.2-0.6l0.6-2.8H25l0.7,3.8l8.7,0l0.6,0c0.6,0,1.6,0,1.9,0.4c0.2,0.2,0.2,0.1,0.3-0.1
	l0.1-0.3l1.1-3c0.1-0.2-0.1-0.2-0.1-0.2c-0.1,0.1-0.2,0.3-0.3,0.4c-0.8,1.1-2.3,2.5-3.7,2.5c-0.7,0-0.5-0.5-0.5-1l0.6-2.8
	c1.6-0.1,1.5,0.7,1.4,1.7c0,0.3,0.2,0.2,0.3,0l0.8-3.6c0.1-0.3-0.1-0.4-0.2-0.1c-0.1,0.2-0.1,0.3-0.2,0.5c-0.2,0.6-0.7,1.3-1.4,1.3
	h-0.5l0.5-2.4c0.1-0.6,0.5-0.8,0.9-0.8c1,0,1.6,0.9,1.9,1.8c0.1,0.3,0.2,0.7,0.3,1c0.1,0.2,0.2,0.2,0.2,0l0.2-3.1
	c0-0.3-0.3-0.1-0.4,0C38.1,17.4,37.9,17.5,37.5,17.5 M12.2,17.8c-0.3,0-0.3-0.3,0-0.3h4.9c0.9,0,1.9-0.1,2.6,0.5
	c1.4,1.2,0,3-1.1,3.5c-0.5,0.2-1.1,0.3-1.6,0.4c-0.2,0-0.4,0-0.6,0l-1.3,0l-0.5,2.5c-0.1,0.5,0.2,0.5,0.5,0.6c0.1,0,0.3,0,0.4,0.1
	c0.1,0.1,0.1,0.2-0.1,0.2h-5c-0.1,0-0.1,0-0.1-0.1c0-0.1,0.2-0.1,0.3-0.1c0.7,0,0.8-0.7,0.9-1.3l1.1-4.9
	C12.7,18.3,12.9,17.8,12.2,17.8z M15.2,21.6c0.4,0,0.7,0,0.9-0.2c0.3-0.2,0.4-0.7,0.5-1c0.2-0.7,0.4-1.5,0.5-2.2
	c0-0.3-0.1-0.5-0.4-0.5c-0.4,0-0.7,0.2-0.8,0.7L15.2,21.6z M53.7,17.5H49c-0.3,0-0.2,0.3,0,0.3c0.1,0,0.4,0.1,0.5,0.2
	c0.1,0.2,0,0.5-0.1,0.8l-1,4.9c-0.1,0.6-0.2,1.2-0.9,1.2h-0.2c-0.2,0-0.3,0.2,0,0.2h0.3h2.4h2.2c0.1,0,0.2-0.1,0.1-0.2
	c0,0-0.1,0-0.1,0c0,0,0,0,0,0c-0.3,0-0.7-0.1-0.6-0.6l0.6-2.9l0.6-2.9c0.1-0.6,0.5-0.7,0.9-0.7C53.9,17.8,54,17.5,53.7,17.5z
	 M59.7,17.5c1,0,1.9,0.5,2.3,1c1,1.2,0.6,3.3,0.1,4.1c-0.5,0.9-1.5,1.8-2.7,2.1c-0.7,0.2-1.2,0.3-1.9,0.3h-0.3h-4.7
	c-0.1,0-0.2-0.1-0.1-0.1c0-0.1,0.1-0.1,0.3-0.1c0,0,0.1,0,0.1,0c0.5-0.1,0.7-0.5,0.8-1l1.1-5c0.1-0.5,0.3-1.1-0.4-1.1
	c-0.3,0-0.3-0.3,0-0.3h1.4L59.7,17.5z M56.9,23.7c-0.1,0.5-0.2,1.2,0.5,1.2c0.6,0,0.8-0.4,0.9-0.9l0.2-0.6c0.4-1.2,0.7-2.6,0.9-3.8
	c0-0.4,0.3-1.2,0.1-1.6c-0.2-0.3-0.5-0.4-0.8-0.3c-0.5,0.1-0.6,0.6-0.7,1.2C57.6,20.7,57.1,22.7,56.9,23.7z M89,17.4
	c-0.3,0.1-0.6,0.1-0.8,0.1c-0.4,0-0.9,0-1.3,0l-3.8,0c-0.7,0-1-0.1-1.2-0.3c-0.1-0.2-0.2-0.2-0.3,0l-0.1,0.3l-3.5,0
	c-0.1,0-0.1,0-0.1,0.1c0,0.2,0.2,0.2,0.3,0.2c0.9,0.2,1.1,1.3,1,1.8c0,0.3-0.1,0.8-0.1,1.1l-0.4,2.1l-1.4-4.2
	c-0.2-0.5,0.1-0.8,0.2-0.9c0.1-0.1,0.1-0.2-0.1-0.2H73c-0.2,0-0.3,0.3,0,0.3c0.8,0,0.7,0.6,0.6,1.2c-0.3,1.6-0.8,4.7-2.1,5.7
	c-0.1,0.1-0.2,0.1-0.4,0.2c-0.2,0.1-0.3,0.1-0.3,0.2c0,0.1,0.1,0.1,0.3,0.1h3.4c0.2,0,0.1-0.2,0-0.3c-0.1,0-0.2,0-0.3-0.1
	c-0.9-0.3-1-1.4-0.9-2.2c0.1-1.1,0.4-2.2,0.6-3.2c0.1-0.2,0.2-0.8,0.2-1c0.6,1.8,1.2,3.5,1.8,5.2c0.1,0.4,0.4,1,0.5,1.4
	c0.1,0.4,0.1,0.3,0.5,0.1c0.8-0.6,1.6-1.1,2.7-1.3c0.1,0,0.3-0.1,0.4-0.1c0.3-0.1,0.1-0.2,0-0.2c-0.4,0-0.7,0.1-0.9-0.3
	c0.3-1.4,0.8-5,2.6-5.4l-0.8,2.5c-0.1,0.2,0.1,0.3,0.2,0.1c0.6-1.1,2-2.6,3-2.6l-1.3,6.1c-0.1,0.3-0.2,0.7-0.4,0.8
	c-0.3,0.2-0.7,0.2-1,0.2c-0.1,0-0.3,0-0.3,0.1c0,0.1,0,0.1,0.2,0.1h5.8c0.1,0,0.1-0.1,0.1-0.1c0-0.2-0.5-0.2-0.6-0.2
	c-0.5,0-0.7-0.1-0.7-0.6c0.5-2.2,1-4.3,1.4-6.5c0.7,0,1.2,0.7,1.4,1.1c0.2,0.5,0.3,0.9,0.4,1.4c0,0.2,0.1,0.3,0.2,0.3
	c0.1,0,0.1-0.2,0.1-0.3l0.4-3c0-0.2-0.1-0.2-0.2-0.1C89.3,17.3,89.1,17.4,89,17.4z M42.7,24.4c-0.2,0.4-0.4,0.5,0.1,0.6
	c0.3,0,0.6-0.1,0.9-0.2c1.3-0.5,2.5-2,3-2.7c0.1-0.1,0.1-0.1,0.1-0.2c0.2-0.3,0.3-0.1,0.2,0.3l-1.2,3.4c0,0,0,0.1,0,0.1
	c-0.1,0.2-0.1,0.3-0.3,0.1c-0.4-0.4-1.2-0.5-1.7-0.5l-5.1,0c-0.2,0,0-0.2,0-0.3l4.7-6.5c0.4-0.6,0.3-0.7-0.3-0.6
	c-0.1,0-0.1,0-0.2,0.1c-1.1,0.3-2,1.2-2.6,2.1L40,20.2c-0.1,0.2-0.3,0.2-0.2-0.1l0.2-0.6l0.8-2.4c0-0.1,0.1-0.2,0.1-0.2
	c0,0,0,0,0.1,0c0.1,0,0.2,0.2,0.4,0.2c0,0,0,0,0.1,0c0.9,0.2,1.9,0.2,2.8,0.2l0.4,0l2,0l1,0c0.1,0,0.1,0.1,0,0.1L42.7,24.4z
	 M70.4,17.5l-0.9,0l-5.3,0c-0.2,0-0.3,0.2,0,0.3c0.1,0,0.2,0,0.3,0.1c0.4,0.1,0.2,0.6,0.2,0.9l-1.1,5.4c-0.1,0.6-0.4,0.8-0.9,0.8
	c-0.2,0-0.3,0.1-0.3,0.1c0,0.1,0.1,0.1,0.3,0.1l4.7,0l0.6,0c0.6,0,1.6,0,1.9,0.4c0.2,0.2,0.2,0.1,0.3-0.1l0.1-0.3l1.1-3
	c0.1-0.2-0.1-0.2-0.1-0.2c-0.1,0.1-0.2,0.3-0.3,0.4C70,23.5,68.5,25,67.1,25c-0.7,0-0.5-0.5-0.5-1l0.6-2.8c1.6-0.1,1.5,0.7,1.4,1.7
	c0,0.3,0.2,0.2,0.3,0l0.8-3.6c0.1-0.3-0.1-0.4-0.2-0.1c-0.1,0.2-0.1,0.3-0.2,0.5c-0.2,0.6-0.7,1.3-1.4,1.3h-0.5l0.5-2.4
	c0.1-0.6,0.5-0.8,0.9-0.8c1.5,0,1.9,1.6,2.2,2.8c0,0.2,0.2,0.2,0.3,0l0.2-3.1c0-0.3-0.3-0.1-0.4,0C70.9,17.4,70.8,17.5,70.4,17.5z
	 M25.2,18.4c0.2-1.1,1.4-0.8,1.2-0.1c-0.1,0.7-0.2,1.5-0.5,2.1c-0.1,0.3-0.2,0.4-0.5,0.5l-0.3-0.6l-0.2,0L25,21h-0.4L25.2,18.4z"/>
<path id="XMLID_11_" class="st0" d="M43.2,7.4L43.2,7.4L41.7,6l0.9-1.8l-1.8,1l-1.5-1.4l0.4,2l-1.8,1l2,0.3l0.4,2l0.9-1.8L43.2,7.4
	L43.2,7.4z M38.5,6.6L38.5,6.6L38.5,6.6L38.5,6.6L38.5,6.6z M46.6,0.9L46.6,0.9l-0.5,2l-2,0.1l1.7,1.1l-0.5,2l1.6-1.3l1.7,1.1
	L47.8,4l1.6-1.3l-2,0.1L46.6,0.9z M38.5,10.1L38.5,10.1L38.5,10.1L38.5,10.1L38.5,10.1z M55.7,10L55.7,10L55.7,10L55.7,10L55.7,10z
	 M53.6,1.2L53.6,1.2l0.4,2l2,0.3l0,0l-1.8,1l0.4,2L53.1,5l-1.8,1l0.9-1.8l-1.5-1.4l2,0.3L53.6,1.2z M56.8,7.4L56.8,7.4l2-0.3
	l0.9,1.8l0.4-2l2-0.3l-1.8-1l0.4-2l-1.5,1.4l-1.8-1L58.2,6L56.8,7.4L56.8,7.4z M55.7,6.6L55.7,6.6L55.7,6.6L55.7,6.6z M67.3,10.4H69
	c0,0,0.1,0,0.1,0c0,0,0,0,0,0c0,0-0.1,0.1-0.2,0.1c-0.1,0-0.2,0-0.2,0.1c-0.1,0-0.1,0.1-0.2,0.2c0,0.1,0,0.2,0,0.4v2.7
	c0,0.2,0,0.4,0.1,0.5c0.1,0.1,0.2,0.1,0.4,0.1c0.3,0,0.6-0.1,0.9-0.2c0.3-0.2,0.5-0.4,0.7-0.6c0.1-0.1,0.1-0.2,0.2-0.4
	c0.1-0.1,0.1-0.2,0.1-0.2c0,0,0,0,0.1,0c0,0,0,0,0,0c0,0,0,0,0,0c0,0,0,0,0,0l-0.4,1.5h-3.3c0,0-0.1,0-0.1,0c0,0,0,0,0,0
	c0,0,0.1-0.1,0.2-0.1c0.1,0,0.2,0,0.2,0c0.1,0,0.1-0.1,0.2-0.2c0-0.1,0-0.2,0-0.4V11c0-0.2,0-0.3,0-0.4c0-0.1-0.1-0.1-0.2-0.2
	c-0.1,0-0.1,0-0.2-0.1c-0.1,0-0.2,0-0.2-0.1C67.2,10.4,67.2,10.4,67.3,10.4C67.2,10.4,67.3,10.4,67.3,10.4z M58,10.4h3l0.5,1.3v0
	c0,0,0,0,0,0c0,0,0,0,0,0c0,0-0.1-0.1-0.2-0.2c-0.1-0.1-0.1-0.2-0.2-0.3c-0.2-0.3-0.4-0.5-0.7-0.6c-0.3-0.1-0.6-0.2-1.1-0.2l-0.2,0
	v1.7h0.1c0.2,0,0.4,0,0.6-0.1c0.2-0.1,0.3-0.2,0.3-0.3c0-0.1,0.1-0.2,0.1-0.3c0-0.1,0-0.2,0.1-0.2c0,0,0,0,0,0c0,0,0,0,0,0.1v1.9
	c0,0,0,0.1,0,0.1c0,0,0,0,0,0c0,0-0.1-0.1-0.1-0.2c0-0.1,0-0.2-0.1-0.3c-0.1-0.2-0.2-0.3-0.3-0.4c-0.2-0.1-0.3-0.1-0.6-0.1h-0.1v1.4
	c0,0.2,0,0.4,0.1,0.5c0.1,0.1,0.2,0.1,0.4,0.1c0.3,0,0.6-0.1,0.9-0.2c0.3-0.2,0.5-0.4,0.7-0.6c0.1-0.1,0.1-0.2,0.2-0.4
	c0.1-0.1,0.1-0.2,0.1-0.2c0,0,0,0,0,0c0,0,0,0,0,0c0,0,0,0,0,0c0,0,0,0,0,0l-0.4,1.5H58c0,0-0.1,0-0.1,0c0,0,0,0,0,0
	c0,0,0.1-0.1,0.1-0.1c0.1,0,0.2,0,0.2,0c0.1,0,0.1-0.1,0.2-0.2c0-0.1,0-0.2,0-0.4V11c0-0.2,0-0.3,0-0.4c0-0.1-0.1-0.1-0.2-0.2
	c-0.1,0-0.1,0-0.2-0.1C58,10.5,57.9,10.4,58,10.4C57.9,10.4,58,10.4,58,10.4C58,10.4,58,10.4,58,10.4z M49.2,10.4h2.6
	c0.1,0,0.1,0,0.2,0c0,0,0.1,0,0.1,0c0,0,0,0,0,0c0,0,0,0,0,0l0.4,1.4c0,0,0,0,0,0c0,0,0,0,0,0c0,0,0,0,0,0c0,0,0,0,0,0
	c0,0-0.1-0.1-0.1-0.2c-0.1-0.1-0.1-0.2-0.2-0.3c-0.2-0.2-0.4-0.4-0.6-0.5c-0.2-0.1-0.5-0.2-0.7-0.2v3.2c0,0.2,0,0.3,0,0.4
	c0,0.1,0.1,0.1,0.2,0.2c0.1,0,0.2,0,0.3,0c0.1,0,0.2,0,0.2,0.1c0,0,0,0,0,0c0,0,0,0-0.1,0h-1.9c0,0-0.1,0-0.1,0c0,0,0,0,0,0
	c0,0,0.1-0.1,0.2-0.1c0.1,0,0.2,0,0.3,0c0.1,0,0.1-0.1,0.2-0.2c0-0.1,0-0.2,0-0.4v-3.2c-0.3,0-0.5,0.1-0.7,0.2
	c-0.2,0.1-0.4,0.3-0.6,0.5c-0.1,0.1-0.1,0.2-0.2,0.3c-0.1,0.1-0.1,0.2-0.1,0.2c0,0,0,0,0,0c0,0,0,0,0,0c0,0,0,0,0,0c0,0,0,0,0,0
	l0.4-1.4c0,0,0,0,0,0c0,0,0,0,0,0c0,0,0,0,0.1,0C49.1,10.3,49.2,10.4,49.2,10.4z M40.9,10.3c0.2,0,0.4,0,0.6,0.1
	c0.2,0.1,0.4,0.2,0.6,0.3c0.3,0.2,0.5,0.4,0.6,0.7c0.1,0.3,0.2,0.6,0.2,1c0,0.4-0.1,0.7-0.2,1c-0.1,0.3-0.3,0.5-0.6,0.7
	c-0.2,0.1-0.4,0.2-0.6,0.3c-0.2,0.1-0.4,0.1-0.6,0.1c-0.2,0-0.4,0-0.6-0.1c-0.2-0.1-0.4-0.2-0.6-0.3c-0.3-0.2-0.5-0.4-0.6-0.7
	c-0.1-0.3-0.2-0.6-0.2-1c0-0.4,0.1-0.7,0.2-1c0.1-0.3,0.3-0.5,0.6-0.7c0.2-0.1,0.4-0.2,0.6-0.3C40.5,10.3,40.7,10.3,40.9,10.3
	L40.9,10.3z M40.9,10.4c-0.4,0-0.8,0.2-1,0.5c-0.2,0.4-0.4,0.8-0.4,1.5c0,0.6,0.1,1.1,0.4,1.5c0.2,0.3,0.6,0.5,1,0.5
	c0.4,0,0.8-0.2,1-0.5c0.2-0.4,0.4-0.8,0.4-1.5c0-0.6-0.1-1.1-0.4-1.5C41.7,10.6,41.3,10.4,40.9,10.4L40.9,10.4z M29,10.4h1.7
	c0,0,0.1,0,0.1,0c0,0,0,0,0,0c0,0-0.1,0.1-0.2,0.1c-0.1,0-0.2,0-0.2,0.1c-0.1,0-0.1,0.1-0.2,0.2c0,0.1,0,0.2,0,0.4v1.2h2V11
	c0-0.2,0-0.3,0-0.4c0-0.1-0.1-0.1-0.2-0.2c-0.1,0-0.1,0-0.2-0.1c-0.1,0-0.2,0-0.2-0.1c0,0,0,0,0,0c0,0,0,0,0.1,0h1.6
	c0,0,0.1,0,0.1,0c0,0,0,0,0,0c0,0-0.1,0.1-0.2,0.1c-0.1,0-0.2,0-0.2,0.1c-0.1,0-0.1,0.1-0.2,0.2c0,0.1,0,0.2,0,0.4v2.7
	c0,0.2,0,0.3,0,0.4c0,0.1,0.1,0.1,0.2,0.2c0.1,0,0.1,0,0.2,0c0.1,0,0.2,0,0.2,0.1c0,0,0,0,0,0c0,0,0,0-0.1,0h-1.6c0,0-0.1,0-0.1,0
	c0,0,0,0,0,0c0,0,0.1-0.1,0.2-0.1c0.1,0,0.2,0,0.2,0c0.1,0,0.1-0.1,0.2-0.2c0-0.1,0-0.2,0-0.4v-1.4h-2v1.4c0,0.2,0,0.3,0,0.4
	c0,0.1,0.1,0.1,0.2,0.2c0.1,0,0.1,0,0.2,0c0.1,0,0.2,0,0.2,0.1c0,0,0,0,0,0c0,0,0,0-0.1,0H29c0,0-0.1,0-0.1,0c0,0,0,0,0,0
	c0,0,0.1-0.1,0.2-0.1c0.1,0,0.2,0,0.2,0c0.1,0,0.1-0.1,0.2-0.2c0-0.1,0-0.2,0-0.4V11c0-0.2,0-0.3,0-0.4c0-0.1-0.1-0.1-0.2-0.2
	c-0.1,0-0.1,0-0.2-0.1c-0.1,0-0.2,0-0.2-0.1C28.9,10.4,28.9,10.4,29,10.4C28.9,10.4,28.9,10.4,29,10.4z"/>
<path id="XMLID_2_" class="st0" d="M74.6,27.3h-1.5v0.7h1.5c0,0,0.2,0,0.2,0c0,0,0.1-0.2,0.1-0.2v-0.3c0,0,0-0.1-0.1-0.2L74.6,27.3
	 M72.5,29.6v-2.8h2.4c0.2,0,0.4,0,0.5,0.1c0.1,0.1,0.1,0.2,0.1,0.4V28c0,0.2,0,0.3-0.1,0.4c-0.1,0.1-0.3,0.1-0.5,0.1h-1.7v1.1H72.5z
	 M76.9,28.5h1.2l-0.6-1.1L76.9,28.5z M75.7,29.6l1.6-2.8h0.6l1.6,2.8h-0.7L78.4,29h-1.8l-0.3,0.6H75.7z M80.4,29.6v-2.8H81v2.3h2.1
	v0.5H80.4z M84.1,29.6v-2.8h0.6v2.8H84.1z M88.5,27.4h-1.7v1.8h1.7v-0.6l0.6,0.1V29c0,0.3,0,0.4-0.1,0.5c-0.1,0.1-0.3,0.1-0.5,0.1
	h-1.7c-0.3,0-0.5,0-0.5-0.1c-0.1-0.1-0.1-0.3-0.1-0.5v-1.5c0-0.3,0-0.4,0.1-0.5c0.1-0.1,0.3-0.1,0.5-0.1h1.7c0.3,0,0.5,0,0.5,0.1
	c0.1,0.1,0.1,0.3,0.1,0.5v0.3l-0.6,0.1V27.4z M87.2,26.6l0.5-0.9h0.6l-0.8,0.9H87.2z"/>
</svg>
