<?xml version="1.0" encoding="utf-8"?>
<!-- Generator: Adobe Illustrator 19.0.0, SVG Export Plug-In . SVG Version: 6.00 Build 0)  -->
<svg version="1.1" baseProfile="tiny" id="Layer_1" xmlns="http://www.w3.org/2000/svg" xmlns:xlink="http://www.w3.org/1999/xlink"
	 x="0px" y="0px" viewBox="0 0 50 50" xml:space="preserve">
<g id="XMLID_18_">
	<g id="XMLID_19_">
		<path id="XMLID_16_" fill="#FFFFFF" d="M41.4,40.7c0.9,0,1.7-0.3,2.3-0.9L32.4,28.5c-0.3,0.2-0.5,0.4-0.8,0.6
			c-0.8,0.6-1.5,1.1-2.1,1.5c-0.5,0.4-1.2,0.7-2.1,1.1c-0.9,0.4-1.7,0.5-2.5,0.5l0,0l0,0c-0.8,0-1.6-0.2-2.5-0.5
			c-0.9-0.4-1.6-0.7-2.1-1.1c-0.5-0.3-1.2-0.8-2.1-1.5c-0.2-0.2-0.5-0.4-0.8-0.6L6.2,39.8c0.7,0.6,1.4,0.9,2.3,0.9H41.4z"/>
		<path id="XMLID_15_" fill="#FFFFFF" d="M7.3,21.4c-0.8-0.6-1.6-1.2-2.3-1.9v17.2l10-10C13,25.3,10.4,23.5,7.3,21.4z"/>
		<path id="XMLID_14_" fill="#FFFFFF" d="M42.8,21.4c-3,2.1-5.6,3.8-7.8,5.3l10,10V19.4C44.4,20.1,43.6,20.8,42.8,21.4z"/>
		<path id="XMLID_11_" fill="#FFFFFF" d="M41.4,9.3H8.6c-1.1,0-2,0.4-2.6,1.2c-0.7,0.7-1,1.7-1,2.8c0,0.9,0.4,2,1.2,3
			c0.8,1.1,1.7,2,2.6,2.6c0.5,0.4,2,1.4,4.6,3.2c1.4,1,2.6,1.8,3.6,2.5c0.9,0.6,1.6,1.1,2.3,1.6c0.1,0.1,0.2,0.1,0.3,0.2
			c0.2,0.1,0.4,0.3,0.6,0.4c0.5,0.3,0.9,0.6,1.2,0.8c0.3,0.2,0.7,0.5,1.2,0.7c0.5,0.3,0.9,0.5,1.3,0.6s0.8,0.2,1.1,0.2l0,0l0,0
			c0.3,0,0.7-0.1,1.1-0.2s0.8-0.3,1.3-0.6c0.5-0.3,0.8-0.5,1.2-0.7c0.3-0.2,0.7-0.5,1.2-0.8c0.3-0.2,0.5-0.3,0.6-0.4
			s0.3-0.2,0.3-0.2c0.5-0.3,1.2-0.9,2.3-1.6c1.9-1.3,4.6-3.2,8.2-5.7c1.1-0.8,2-1.7,2.7-2.7c0.7-1.1,1.1-2.2,1.1-3.4
			c0-1-0.4-1.8-1.1-2.5C43.2,9.6,42.4,9.3,41.4,9.3z"/>
	</g>
</g>
</svg>
