<?xml version="1.0" encoding="utf-8"?>
<!-- Generator: Adobe Illustrator 19.0.0, SVG Export Plug-In . SVG Version: 6.00 Build 0)  -->
<svg version="1.1" id="Layer_1" xmlns="http://www.w3.org/2000/svg" xmlns:xlink="http://www.w3.org/1999/xlink" x="0px" y="0px"
	 viewBox="0 0 150 150" style="enable-background:new 0 0 150 150;" xml:space="preserve">
<style type="text/css">
	.st0{fill:#FFFFFF;}
</style>
<path id="White_2_" class="st0" d="M119.5,25h-89c-3,0-5.5,2.5-5.5,5.5v89c0,3,2.5,5.5,5.5,5.5h47.9V86.3h-13V71.2h13V60.1
	c0-12.9,7.9-19.9,19.4-19.9c5.5,0,10.3,0.4,11.6,0.6v13.5l-8,0c-6.3,0-7.5,3-7.5,7.3v9.6h14.9L107,86.3H94V125h25.5
	c3,0,5.5-2.5,5.5-5.5v-89C125,27.5,122.5,25,119.5,25z"/>
</svg>
