<?xml version="1.0" encoding="utf-8"?>
<!-- Generator: Adobe Illustrator 19.0.0, SVG Export Plug-In . SVG Version: 6.00 Build 0)  -->
<svg version="1.1" id="Layer_1" xmlns="http://www.w3.org/2000/svg" xmlns:xlink="http://www.w3.org/1999/xlink" x="0px" y="0px"
	 viewBox="50 -50 150 150" style="enable-background:new 50 -50 150 150;" xml:space="preserve">
<style type="text/css">
	.st0{fill:#771010;}
</style>
<path id="White_2_" class="st0" d="M169.5-25h-89c-3,0-5.5,2.5-5.5,5.5v89c0,3,2.5,5.5,5.5,5.5h47.9V36.3h-13V21.2h13V10.1
	c0-12.9,7.9-19.9,19.4-19.9c5.5,0,10.3,0.4,11.6,0.6V4.3h-8c-6.3,0-7.5,3-7.5,7.3v9.6h14.9L157,36.3h-13V75h25.5
	c3,0,5.5-2.5,5.5-5.5v-89C175-22.5,172.5-25,169.5-25z"/>
</svg>
