<?xml version="1.0" encoding="utf-8"?>
<!-- Generator: Adobe Illustrator 19.0.0, SVG Export Plug-In . SVG Version: 6.00 Build 0)  -->
<svg version="1.1" baseProfile="tiny" id="Layer_1" xmlns="http://www.w3.org/2000/svg" xmlns:xlink="http://www.w3.org/1999/xlink"
	 x="0px" y="0px" viewBox="0 0 50 50" xml:space="preserve">
<g>
	<g id="XMLID_7_">
		<path id="XMLID_5_" fill="#333333" d="M43.8,40l-2.2-2.2c7.1-7.1,7.1-18.6,0-25.7l2.2-2.2C52.1,18.3,52.1,31.7,43.8,40z"/>
		<path id="XMLID_4_" fill="#333333" d="M40.1,13.7l-2.2,2.2c5,5,5,13.2,0,18.2l2.2,2.2C46.3,30,46.3,19.9,40.1,13.7z"/>
		<path id="XMLID_2_" fill="#333333" d="M36.2,17.6L34,19.8c2.9,2.9,2.9,7.6,0,10.4l2.2,2.2C40.3,28.3,40.3,21.7,36.2,17.6z"/>
	</g>
	<g id="XMLID_12_">
		<path id="XMLID_13_" fill="#333333" d="M25.7,0H3.4C1.5,0,0,1.5,0,3.4v43.2C0,48.5,1.5,50,3.4,50h22.3c1.9,0,3.4-1.5,3.4-3.4V3.4
			C29.1,1.5,27.6,0,25.7,0z M11,2.4h7.1c0.2,0,0.4,0.2,0.4,0.4s-0.2,0.4-0.4,0.4H11c-0.2,0-0.4-0.2-0.4-0.4
			C10.6,2.6,10.8,2.4,11,2.4z M14.6,48.3c-0.9,0-1.7-0.8-1.7-1.7s0.8-1.7,1.7-1.7s1.7,0.8,1.7,1.7C16.2,47.6,15.5,48.3,14.6,48.3z
			 M26.7,43.7H2.4V5.4h24.3C26.7,5.4,26.7,43.7,26.7,43.7z"/>
	</g>
</g>
</svg>
