<?xml version="1.0" encoding="utf-8"?>
<!-- Generator: Adobe Illustrator 19.0.0, SVG Export Plug-In . SVG Version: 6.00 Build 0)  -->
<svg version="1.1" id="Layer_1" xmlns="http://www.w3.org/2000/svg" xmlns:xlink="http://www.w3.org/1999/xlink" x="0px" y="0px"
	 viewBox="0 0 1000 1000" style="enable-background:new 0 0 1000 1000;" xml:space="preserve">
<style type="text/css">
	.st0{fill:#AD1E36;stroke:#000000;stroke-miterlimit:10;}
</style>
<g id="XMLID_2_">
	<path id="XMLID_3_" class="st0" d="M962.4,248.4c-14.4-35.8-35.7-68.3-63.2-96.4c-57.9-59-138.3-92.9-220.8-92.9
		c-60,0-130.4,19.7-178.4,69.7c-48-50-118.4-69.7-178.4-69.7c-82.4,0-162.9,33.8-220.8,92.9c-27.6,28.1-48.8,60.5-63.2,96.4
		c-15.4,38.4-22.3,78.9-20.3,120.4c1.3,27.8,6.6,56.2,15.7,85.1l156.3-101.5c1.6-76.7,67.5-133.2,136.9-133.2
		c18.9,0,37.4,3.2,55.1,8.5c23.1,7,44.8,17.7,64,30c22.1,14.1,40.9,30.1,54.8,44.7c13.9-14.6,32.7-30.6,54.8-44.7
		c19.2-12.2,40.9-23,64-30c17.7-5.4,36.2-8.5,55.1-8.5c69.4,0,135.3,56.5,136.9,133.2l156.3,101.5c9.1-28.8,14.4-57.3,15.7-85.1
		C984.7,327.2,977.8,286.7,962.4,248.4z"/>
	<path id="XMLID_46_" class="st0" d="M676,595.3C572.2,527.9,500,481,500,481l0,0L324,595.3c-54.9-57.8-102.2-119.8-123.2-179
		L55.7,510.6c10.5,21.7,23,43.5,37.7,65.5c24,36.1,53.5,72.7,89.4,111c13,13.9,26.9,28.1,41.7,42.5c21.6,21.1,48.3,44.2,79.9,69.3
		l144.4-93.8l51.3-33.3l0,0c0,0,19,12.4,51.3,33.3c35,22.7,85.6,55.6,144.4,93.8c31.6-25.1,58.3-48.3,79.9-69.3
		c14.8-14.4,28.6-28.6,41.7-42.5c35.9-38.3,65.3-74.9,89.4-111c14.6-22,27.2-43.8,37.7-65.5l-145.1-94.2
		C778.2,475.5,730.9,537.6,676,595.3z"/>
	<path id="XMLID_47_" class="st0" d="M500,743.3C500,743.3,500,743.3,500,743.3l-145.2,94.3c15.4,11.5,31.8,23.2,48.9,35.3
		l96.3,67.9h0h0l96.3-67.9c17.1-12.1,33.5-23.9,48.9-35.3C559.2,781.8,500,743.3,500,743.3L500,743.3z"/>
</g>
</svg>
