<?xml version="1.0" encoding="utf-8"?>
<!-- Generator: Adobe Illustrator 19.0.0, SVG Export Plug-In . SVG Version: 6.00 Build 0)  -->
<svg version="1.1" id="Layer_1" xmlns="http://www.w3.org/2000/svg" xmlns:xlink="http://www.w3.org/1999/xlink" x="0px" y="0px"
	 viewBox="-74 0 100 25" style="enable-background:new -74 0 100 25;" xml:space="preserve">
<style type="text/css">
	.st0{fill:#FFFFFF;}
	.st1{fill:#AD1E36;}
</style>
<path class="st0" d="M-74.4,0c6.9,0,12.5,5.6,12.5,12.5S-56.3,25-49.4,25h50c6.9,0,12.5-5.6,12.5-12.5S18.7,0,25.6,0H-74.4z
	 M11.1,12.5C11.1,18.3,6.4,23,0.6,23h-50c-5.8,0-10.5-4.7-10.5-10.5c0-4.1-1.7-7.9-4.5-10.5h80C12.8,4.6,11.1,8.4,11.1,12.5z"/>
<path class="st1" d="M-59.9,12.5c0,5.8,4.7,10.5,10.5,10.5h50c5.8,0,10.5-4.7,10.5-10.5c0-4.1,1.7-7.9,4.5-10.5h-80
	C-61.6,4.6-59.9,8.4-59.9,12.5z"/>
<g>
	<path class="st0" d="M-49.1,7h2.9l4.6,5.9V7h3.1v11.2h-2.7L-46,12v6.1h-3.1V7z"/>
	<path class="st0" d="M-30.9,18.4c-0.9,0-1.7-0.2-2.4-0.5c-0.7-0.3-1.4-0.7-1.9-1.2s-1-1.1-1.3-1.8c-0.3-0.7-0.5-1.5-0.5-2.3v0
		c0-0.8,0.2-1.6,0.5-2.3s0.7-1.3,1.3-1.9c0.5-0.5,1.2-0.9,1.9-1.2c0.7-0.3,1.5-0.5,2.4-0.5c0.9,0,1.7,0.2,2.4,0.5
		c0.7,0.3,1.4,0.7,1.9,1.2c0.5,0.5,1,1.1,1.3,1.8c0.3,0.7,0.5,1.5,0.5,2.3v0c0,0.8-0.2,1.6-0.5,2.3s-0.7,1.3-1.3,1.9
		c-0.5,0.5-1.2,0.9-1.9,1.2C-29.2,18.3-30,18.4-30.9,18.4z M-30.8,15.6c0.4,0,0.8-0.1,1.2-0.2c0.4-0.2,0.7-0.4,0.9-0.6
		c0.2-0.3,0.4-0.6,0.6-1c0.1-0.4,0.2-0.7,0.2-1.2v0c0-0.4-0.1-0.8-0.2-1.2c-0.1-0.4-0.3-0.7-0.6-1c-0.3-0.3-0.6-0.5-0.9-0.7
		c-0.4-0.2-0.7-0.2-1.2-0.2c-0.4,0-0.8,0.1-1.2,0.2c-0.3,0.2-0.6,0.4-0.9,0.6s-0.4,0.6-0.6,1c-0.1,0.4-0.2,0.7-0.2,1.2v0
		c0,0.4,0.1,0.8,0.2,1.2c0.1,0.4,0.3,0.7,0.6,1c0.3,0.3,0.6,0.5,0.9,0.7C-31.7,15.5-31.3,15.6-30.8,15.6z"/>
	<path class="st0" d="M-24.1,7h3.5l2.5,7.1l2.5-7.1h3.4l-4.5,11.3h-2.9L-24.1,7z"/>
	<path class="st0" d="M-5.4,18.4c-0.9,0-1.7-0.2-2.4-0.5c-0.7-0.3-1.4-0.7-1.9-1.2c-0.5-0.5-1-1.1-1.3-1.8c-0.3-0.7-0.5-1.5-0.5-2.3
		v0c0-0.8,0.2-1.6,0.5-2.3c0.3-0.7,0.7-1.3,1.3-1.9c0.5-0.5,1.2-0.9,1.9-1.2C-7,6.9-6.2,6.8-5.4,6.8c0.9,0,1.7,0.2,2.4,0.5
		c0.7,0.3,1.4,0.7,1.9,1.2c0.5,0.5,1,1.1,1.3,1.8c0.3,0.7,0.5,1.5,0.5,2.3v0c0,0.8-0.2,1.6-0.5,2.3s-0.7,1.3-1.3,1.9
		c-0.5,0.5-1.2,0.9-1.9,1.2C-3.8,18.3-4.6,18.4-5.4,18.4z M-5.4,15.6c0.4,0,0.8-0.1,1.2-0.2c0.4-0.2,0.7-0.4,0.9-0.6
		c0.2-0.3,0.4-0.6,0.6-1c0.1-0.4,0.2-0.7,0.2-1.2v0c0-0.4-0.1-0.8-0.2-1.2c-0.1-0.4-0.3-0.7-0.6-1c-0.3-0.3-0.6-0.5-0.9-0.7
		C-4.6,9.6-5,9.6-5.4,9.6s-0.8,0.1-1.2,0.2c-0.3,0.2-0.6,0.4-0.9,0.6c-0.3,0.3-0.4,0.6-0.6,1c-0.1,0.4-0.2,0.7-0.2,1.2v0
		c0,0.4,0.1,0.8,0.2,1.2s0.3,0.7,0.6,1c0.3,0.3,0.6,0.5,0.9,0.7C-6.2,15.5-5.8,15.6-5.4,15.6z"/>
</g>
</svg>
