<?xml version="1.0" encoding="utf-8"?>
<!-- Generator: Adobe Illustrator 19.0.0, SVG Export Plug-In . SVG Version: 6.00 Build 0)  -->
<svg version="1.1" id="Layer_1" xmlns="http://www.w3.org/2000/svg" xmlns:xlink="http://www.w3.org/1999/xlink" x="0px" y="0px"
	 viewBox="-36 0 176 25" style="enable-background:new -36 0 176 25;" xml:space="preserve">
<style type="text/css">
	.st0{fill:#FFFFFF;}
	.st1{fill:#AD1E36;}
</style>
<path class="st0" d="M-36,0c6.9,0,12.5,5.6,12.5,12.5S-17.9,25-11,25h126c6.9,0,12.5-5.6,12.5-12.5S133.1,0,140,0H-36z M125.5,12.5
	c0,5.8-4.7,10.5-10.5,10.5H-11c-5.8,0-10.5-4.7-10.5-10.5c0-4.1-1.7-7.9-4.5-10.5h156C127.2,4.6,125.5,8.4,125.5,12.5z"/>
<path class="st1" d="M-21.5,12.5c0,5.8,4.7,10.5,10.5,10.5h126c5.8,0,10.5-4.7,10.5-10.5c0-4.1,1.7-7.9,4.5-10.5H-26
	C-23.2,4.6-21.5,8.4-21.5,12.5z"/>
<g>
	<path class="st0" d="M-3.5,18.2c-0.9,0-1.7-0.2-2.4-0.5c-0.7-0.3-1.4-0.7-1.9-1.2s-1-1.1-1.3-1.8s-0.5-1.5-0.5-2.3v0
		c0-0.8,0.2-1.6,0.5-2.3s0.7-1.3,1.3-1.9C-7.2,7.8-6.6,7.3-5.8,7c0.7-0.3,1.5-0.5,2.4-0.5C-2.6,6.6-1.8,6.7-1,7
		c0.7,0.3,1.4,0.7,1.9,1.2c0.5,0.5,1,1.1,1.3,1.8c0.3,0.7,0.5,1.5,0.5,2.3v0c0,0.8-0.2,1.6-0.5,2.3c-0.3,0.7-0.7,1.3-1.3,1.9
		c-0.5,0.5-1.2,0.9-1.9,1.2C-1.8,18.1-2.6,18.2-3.5,18.2z M-3.5,15.4c0.4,0,0.8-0.1,1.2-0.2c0.4-0.2,0.7-0.4,0.9-0.6
		c0.2-0.3,0.4-0.6,0.6-1c0.1-0.4,0.2-0.7,0.2-1.2v0c0-0.4-0.1-0.8-0.2-1.2c-0.1-0.4-0.3-0.7-0.6-1C-1.7,10-2,9.8-2.3,9.6
		c-0.4-0.2-0.7-0.2-1.2-0.2c-0.4,0-0.8,0.1-1.2,0.2C-5,9.8-5.3,10-5.5,10.3s-0.4,0.6-0.6,1c-0.1,0.4-0.2,0.7-0.2,1.2v0
		c0,0.4,0.1,0.8,0.2,1.2c0.1,0.4,0.3,0.7,0.6,1c0.3,0.3,0.6,0.5,0.9,0.7C-4.3,15.4-3.9,15.4-3.5,15.4z"/>
	<path class="st0" d="M4.2,6.8h5.7c0.7,0,1.3,0.1,1.8,0.3s0.9,0.4,1.2,0.8c0.2,0.2,0.4,0.5,0.5,0.8c0.1,0.3,0.2,0.6,0.2,1v0
		c0,0.7-0.2,1.2-0.5,1.6c-0.3,0.4-0.7,0.7-1.2,0.9c0.7,0.2,1.2,0.5,1.6,1c0.4,0.4,0.6,1,0.6,1.8v0c0,1-0.4,1.7-1.1,2.3
		C12.3,17.7,11.3,18,10,18H4.2V6.8z M9.2,11.3c0.5,0,0.8-0.1,1.1-0.2s0.4-0.4,0.4-0.7v0c0-0.3-0.1-0.5-0.4-0.7
		C10,9.4,9.7,9.3,9.2,9.3h-2v2H9.2z M9.6,15.5c0.5,0,0.8-0.1,1.1-0.3s0.4-0.4,0.4-0.8v0c0-0.3-0.1-0.6-0.4-0.7
		c-0.2-0.2-0.6-0.3-1.2-0.3H7.2v2.1H9.6z"/>
	<path class="st0" d="M19.5,6.7h3L27.3,18h-3.3l-0.8-2h-4.3L18,18h-3.3L19.5,6.7z M22.2,13.6L21,10.4l-1.3,3.2H22.2z"/>
	<path class="st0" d="M27.4,6.8h3.5l2.5,7.1L36,6.8h3.4l-4.5,11.3H32L27.4,6.8z"/>
	<path class="st0" d="M40.5,6.8h9v2.6h-5.9v1.7h5.4v2.4h-5.4v1.8h6V18h-9.1V6.8z"/>
	<path class="st0" d="M55.6,18.2c-1,0-2-0.2-2.9-0.5c-0.9-0.3-1.7-0.8-2.4-1.4l1.7-2.1c1.1,0.9,2.3,1.3,3.6,1.3c0.4,0,0.7-0.1,1-0.2
		s0.3-0.3,0.3-0.6v0c0-0.1,0-0.2-0.1-0.3c-0.1-0.1-0.2-0.2-0.3-0.3c-0.1-0.1-0.3-0.2-0.6-0.2s-0.6-0.2-0.9-0.2
		c-0.6-0.1-1.2-0.3-1.7-0.5c-0.5-0.2-1-0.4-1.3-0.6c-0.4-0.3-0.7-0.6-0.9-1c-0.2-0.4-0.3-0.9-0.3-1.4v0c0-0.5,0.1-1,0.3-1.4
		s0.5-0.8,0.9-1.1c0.4-0.3,0.8-0.6,1.4-0.7c0.5-0.2,1.1-0.3,1.8-0.3c1,0,1.8,0.1,2.6,0.4c0.8,0.3,1.4,0.6,2,1.1l-1.6,2.2
		c-0.5-0.4-1-0.6-1.6-0.8c-0.5-0.2-1.1-0.3-1.6-0.3c-0.4,0-0.7,0.1-0.8,0.2S54,9.7,54,9.9v0c0,0.1,0,0.2,0.1,0.3
		c0.1,0.1,0.2,0.2,0.3,0.3c0.1,0.1,0.3,0.2,0.6,0.2c0.3,0.1,0.6,0.2,1,0.2c0.6,0.1,1.2,0.3,1.7,0.5c0.5,0.2,1,0.4,1.3,0.7
		c0.4,0.3,0.6,0.6,0.8,1c0.2,0.4,0.3,0.8,0.3,1.3v0c0,0.6-0.1,1.1-0.3,1.5s-0.5,0.8-0.9,1.1c-0.4,0.3-0.9,0.6-1.4,0.7
		S56.3,18.2,55.6,18.2z M52,3.4h2l1.3,1l1.3-1h1.9l-2,2.6h-2.5L52,3.4z"/>
	<path class="st0" d="M64.3,9.5H61V6.8h9.8v2.7h-3.4V18h-3.1V9.5z"/>
	<path class="st0" d="M72.2,6.8h9v2.6h-5.9v1.7h5.4v2.4h-5.4v1.8h6V18h-9.1V6.8z"/>
	<path class="st0" d="M82.8,6.8h2.9l4.6,5.9V6.8h3.1V18h-2.7l-4.8-6.1V18h-3.1V6.8z"/>
	<path class="st0" d="M98.4,18.2c-0.5,0-0.9,0-1.3-0.1s-0.8-0.2-1.1-0.4c-0.3-0.2-0.6-0.4-0.9-0.6s-0.5-0.5-0.7-0.7l2-1.9
		c0.3,0.3,0.6,0.6,0.8,0.8c0.3,0.2,0.6,0.3,0.9,0.3c0.4,0,0.7-0.1,0.9-0.4s0.3-0.7,0.3-1.2V6.8h3.1v7.1c0,0.7-0.1,1.3-0.3,1.8
		c-0.2,0.5-0.5,1-0.8,1.3c-0.4,0.4-0.8,0.7-1.3,0.8C99.6,18.1,99,18.2,98.4,18.2z"/>
	<path class="st0" d="M104.4,6.8h9v2.6h-5.9v1.7h5.4v2.4h-5.4v1.8h6V18h-9.1V6.8z"/>
</g>
</svg>
