<?xml version="1.0" encoding="utf-8"?>
<!-- Generator: Adobe Illustrator 19.0.0, SVG Export Plug-In . SVG Version: 6.00 Build 0)  -->
<svg version="1.1" baseProfile="tiny" id="Layer_1" xmlns="http://www.w3.org/2000/svg" xmlns:xlink="http://www.w3.org/1999/xlink"
	 x="0px" y="0px" viewBox="0 0 50 50" xml:space="preserve">
<g>
	<g id="XMLID_3_">
		<path id="XMLID_1_" fill="#FFFFFF" d="M28.1,47.1c0.2-0.3,0-1.2-0.5-2.6c-0.1-0.4-0.3-1-0.5-1.7s-0.4-1.4-0.6-2s-0.3-1.2-0.5-1.7
			c0-0.1-0.1-0.4-0.2-0.9s-0.2-0.9-0.3-1.2c-0.1-0.3-0.2-0.5-0.4-0.7c-0.3-0.3-0.8-0.4-1.6-0.4c-0.8,0-1.6,0-2.4,0.1
			s-1.6,0.2-2.3,0.2c-0.8,0-1.3-0.1-1.5-0.4c-0.1-0.1-0.2-0.3-0.4-0.6c-0.1-0.3-0.2-0.4-0.2-0.6c0-0.1-0.1-0.4-0.2-0.8
			c-0.1-0.4-0.1-0.6-0.2-0.6c-0.8-2.9-1.2-5.7-1.2-8.3c0-2.7,0.4-5.4,1.2-8.3c0,0,0.1-0.2,0.2-0.6s0.2-0.6,0.2-0.8
			c0-0.1,0.1-0.3,0.2-0.6s0.2-0.4,0.4-0.6c0.2-0.2,0.7-0.4,1.5-0.4s1.5,0.1,2.3,0.2c0.8,0.1,1.6,0.2,2.4,0.1c0.8,0,1.3-0.2,1.6-0.4
			c0.2-0.2,0.3-0.4,0.4-0.7s0.2-0.7,0.3-1.2c0.1-0.5,0.1-0.8,0.2-0.9c0.1-0.5,0.3-1.1,0.5-1.7c0.2-0.6,0.4-1.3,0.6-2
			s0.4-1.3,0.5-1.7c0.5-1.4,0.6-2.3,0.5-2.6c-0.1-0.1-0.2-0.3-0.4-0.5c-0.4-0.4-0.9-0.8-1.6-1.2c-0.7-0.5-1.3-0.8-1.8-1
			c-1-0.4-2.5-0.3-4.6,0.3c-2,0.6-3.6,1.5-4.8,2.7c-0.4,0.4-0.7,0.7-1,1.1S13.3,5,13,5.5c-0.3,0.6-0.5,1-0.7,1.3
			c-0.1,0.3-0.4,0.8-0.7,1.5C11.2,9.4,11,9.9,10.9,10C10,11.8,9.4,13.5,9,15.2c-0.7,2.8-1,6.1-1,9.7c0,3.7,0.3,6.9,1,9.7
			c0.4,1.7,1,3.4,1.9,5.2c0.1,0.2,0.3,0.6,0.6,1.4c0.3,0.7,0.6,1.3,0.7,1.5c0.1,0.3,0.4,0.7,0.7,1.3s0.6,1,0.9,1.4
			c0.3,0.4,0.6,0.8,1,1.1c1.2,1.2,2.8,2.2,4.8,2.7c2.1,0.6,3.7,0.7,4.6,0.3c0.5-0.2,1.1-0.5,1.8-1c0.7-0.5,1.3-0.9,1.6-1.2
			C27.9,47.4,28.1,47.2,28.1,47.1z"/>
	</g>
	<g id="XMLID_7_">
		<path id="XMLID_5_" fill="#FFFFFF" d="M43.8,40l-2.2-2.2c7.1-7.1,7.1-18.6,0-25.7l2.2-2.2C52.1,18.3,52.1,31.7,43.8,40z"/>
		<path id="XMLID_4_" fill="#FFFFFF" d="M40.1,13.7l-2.2,2.2c5,5,5,13.2,0,18.2l2.2,2.2C46.3,30,46.3,19.9,40.1,13.7z"/>
		<path id="XMLID_2_" fill="#FFFFFF" d="M36.2,17.6L34,19.8c2.9,2.9,2.9,7.6,0,10.4l2.2,2.2C40.3,28.3,40.3,21.7,36.2,17.6z"/>
	</g>
</g>
</svg>
