<?xml version="1.0" encoding="utf-8"?>
<!-- Generator: Adobe Illustrator 19.0.0, SVG Export Plug-In . SVG Version: 6.00 Build 0)  -->
<svg version="1.1" id="Layer_1" xmlns="http://www.w3.org/2000/svg" xmlns:xlink="http://www.w3.org/1999/xlink" x="0px" y="0px"
	 viewBox="50 -50 150 150" style="enable-background:new 50 -50 150 150;" xml:space="preserve">
<style type="text/css">
	.st0{fill:#771010;}
</style>
<path id="XMLID_1_" class="st0" d="M102.2,75C148.6,75,174,36.5,174,3.2c0-1.1,0-2.2-0.1-3.3c4.9-3.6,9.2-8,12.6-13.1
	c-4.5,2-9.4,3.4-14.5,4c5.2-3.1,9.2-8.1,11.1-14c-4.9,2.9-10.3,5-16,6.1c-4.6-4.9-11.2-8-18.4-8c-13.9,0-25.2,11.3-25.2,25.2
	c0,2,0.2,3.9,0.7,5.8c-21-1.1-39.6-11.1-52-26.4c-2.2,3.7-3.4,8.1-3.4,12.7c0,8.8,4.5,16.5,11.2,21c-4.1-0.1-8-1.3-11.4-3.2
	c0,0.1,0,0.2,0,0.3c0,12.2,8.7,22.4,20.3,24.7c-2.1,0.6-4.4,0.9-6.7,0.9c-1.6,0-3.2-0.2-4.7-0.5c3.2,10,12.5,17.3,23.6,17.5
	C92.2,60,81.3,64,69.5,64c-2,0-4-0.1-6-0.3C74.7,70.8,87.9,75,102.2,75"/>
</svg>
